<svg xmlns="http://www.w3.org/2000/svg" data-name="Layer 1" width="518.737" height="619.103"><path d="M227.029 617.507h-34.985c-1.498 0-2.716-1.538-2.716-3.428v-37.175c0-1.89 1.218-3.428 2.716-3.428h34.985c1.497 0 2.716 1.538 2.716 3.428v37.175c0 1.89-1.219 3.428-2.716 3.428ZM67.587 599.71a2.27 2.27 0 0 1-1.645-3.934l.155-.618-.061-.148a6.094 6.094 0 0 0-11.242.041c-1.838 4.428-4.18 8.864-4.756 13.546a18.029 18.029 0 0 0 .317 6.2 72.281 72.281 0 0 1-6.575-30.02 69.766 69.766 0 0 1 .432-7.783q.359-3.178.995-6.31a73.119 73.119 0 0 1 14.5-30.99 19.459 19.459 0 0 0 8.093-8.397 14.843 14.843 0 0 0 1.35-4.056c-.394.052-1.485-5.948-1.188-6.316-.55-.834-1.532-1.248-2.132-2.06-2.982-4.044-7.09-3.338-9.236 2.156-4.582 2.313-4.626 6.148-1.815 9.837 1.789 2.347 2.035 5.523 3.604 8.035-.161.207-.33.407-.49.614a73.591 73.591 0 0 0-7.682 12.168 30.592 30.592 0 0 0-1.826-14.21c-1.748-4.217-5.025-7.768-7.91-11.414a6.28 6.28 0 0 0-11.185 3.083l-.017.161q.643.363 1.259.77a3.078 3.078 0 0 1-1.241 5.602l-.063.01a30.628 30.628 0 0 0 .807 4.579c-3.701 14.316 4.29 19.53 15.702 19.764.252.13.497.258.75.381a75.115 75.115 0 0 0-4.044 19.028 71.245 71.245 0 0 0 .051 11.503l-.019-.135a18.826 18.826 0 0 0-6.426-10.87c-4.946-4.063-11.933-5.56-17.269-8.825a3.533 3.533 0 0 0-5.411 3.437l.022.143a20.677 20.677 0 0 1 2.319 1.117q.642.363 1.258.77a3.078 3.078 0 0 1-1.24 5.602l-.064.01-.129.019a30.655 30.655 0 0 0 5.639 8.83c2.314 12.496 12.256 13.682 22.89 10.043h.006a75.092 75.092 0 0 0 5.045 14.726h18.02c.065-.2.123-.407.18-.607a20.475 20.475 0 0 1-4.985-.297c1.337-1.641 2.674-3.294 4.01-4.935a1.118 1.118 0 0 0 .085-.097c.678-.84 1.362-1.673 2.04-2.512l.001-.001a29.99 29.99 0 0 0-.879-7.64ZM501.384 143.247c0-1.478-1.722-2.677-3.848-2.677-2.125 0-3.847 1.199-3.847 2.677s1.722 2.677 3.847 2.677c2.126 0 3.848-1.198 3.848-2.677Z" fill="#f2f2f2"/><ellipse cx="473.111" cy="149.27" rx="3.848" ry="2.677" fill="#f2f2f2"/><ellipse cx="507.24" cy="162.319" rx="3.848" ry="2.677" fill="#f2f2f2"/><path d="M517.365 171.151a1.505 1.505 0 0 1-.56-.05 2.526 2.526 0 0 1-1.45-2.13 2.39 2.39 0 0 1 .99-2.53 1.097 1.097 0 0 1 .35-.11c.93-.13 1.83.85 2.01 2.18.18 1.33-.42 2.51-1.34 2.64ZM299.583 211.28c-.183-1.33-1.082-2.306-2.008-2.178-.925.127-1.527 1.31-1.344 2.64.184 1.33 1.083 2.306 2.008 2.178.926-.127 1.527-1.31 1.344-2.64ZM490.265 158.299c-.926.127-1.528 1.31-1.344 2.64.183 1.33 1.082 2.305 2.007 2.178.926-.128 1.528-1.31 1.344-2.64-.183-1.33-1.082-2.306-2.007-2.178ZM503.376 152.757c-.183-1.33-1.082-2.306-2.008-2.178-.925.127-1.527 1.309-1.344 2.64.184 1.33 1.082 2.305 2.008 2.178.926-.128 1.527-1.31 1.344-2.64Z" fill="#f2f2f2"/><ellipse cx="824.057" cy="284.812" rx="1.692" ry="2.432" transform="rotate(-7.845 -370.387 2698.374)" fill="#f2f2f2"/><path d="M392.055 285.471h-62.63a11.555 11.555 0 1 0 0 23.11h62.63a11.555 11.555 0 1 0 0-23.11ZM435.695 284.471a14.147 14.147 0 0 0-10.22 4.22 11.884 11.884 0 0 0-3.48 8.34c0 6.92 6.14 12.55 13.7 12.55h45.67c.27-.33.54-.67.81-1 .27-.33.53-.66.79-1h-47.27c-6.35 0-11.52-4.73-11.52-10.55a10.027 10.027 0 0 1 3.03-7.12 11.962 11.962 0 0 1 8.49-3.44h62.15c.2-.31.39-.62.58-.93.22-.36.44-.71.65-1.07ZM284.95 124.476h-10.61a2.19 2.19 0 0 0-2.19 2.19v10.62a2.19 2.19 0 0 0 2.19 2.19h10.61a2.198 2.198 0 0 0 2.2-2.19v-10.62a2.198 2.198 0 0 0-2.2-2.19ZM284.95 411.476h-10.61a2.19 2.19 0 0 0-2.19 2.19v10.62a2.19 2.19 0 0 0 2.19 2.19h10.61a2.198 2.198 0 0 0 2.2-2.19v-10.62a2.198 2.198 0 0 0-2.2-2.19ZM431.305 130.971h-33a6.11 6.11 0 0 0 0 12.22h33a6.11 6.11 0 0 0 0-12.22ZM475.115 161.521h-120.63a22.175 22.175 0 0 0-22.16 22.15v36.33a22.192 22.192 0 0 0 22.16 22.17h120.63a22.186 22.186 0 0 0 22.16-22.17v-36.33a22.169 22.169 0 0 0-22.16-22.15Zm19.72 58.48a19.728 19.728 0 0 1-19.72 19.72h-86.6a53.08 53.08 0 0 1-7.17-.48h-.01c-.18-.02-.37-.05-.55-.08a53.734 53.734 0 0 1-46.02-53.19v-2.3a19.745 19.745 0 0 1 19.72-19.71h120.63a19.739 19.739 0 0 1 19.72 19.71Z" fill="#f2f2f2"/><path d="M320.885 357.091h-.02c-69.11-12.81-122.37-95.23-122.37-194.95v-8.42c0-39.74 23.25-72.13 51.81-72.13l237.064-8.04c-1.53-3.02.706 2.05-.944-.89h-236.12c-32.11 0-58.23 36.34-58.23 81.06v132.95c0 44.73 26.12 81.14 58.23 81.14h194.41c2.95-2.92-3.147 2.8-.347-.26l-104.643-8.71a101.052 101.052 0 0 1-18.84-1.75Z" fill="#f2f2f2"/><path d="M114.15 219.112a38.589 38.589 0 0 1-3.777 1.539 31.024 31.024 0 0 0-5.708-6.748 31.522 31.522 0 0 1 .764 8.222 65.435 65.435 0 0 1-21.337 1.433q1.114-4.027 2.228-8.064a15.422 15.422 0 0 1-15.979 3.99 26.678 26.678 0 0 0 11.777-9.985 18.395 18.395 0 0 0 2.09-15.045c-1.21-3.66-3.724-6.811-4.647-10.536-1.188-4.795 2.886-8.902 3.693-13.75.986-5.942 27.352 2.907 26.408 5.825 1.952 1.315 2.016 4.201 1.21 6.408-.807 2.218-2.281 4.16-2.801 6.451-.51 2.292 6.334 24.085 3.639 23.003a14.098 14.098 0 0 1 2.44 7.257Z" fill="#2f2e41"/><path d="m150.343 284.085-51.627-24.257a9.207 9.207 0 0 1-4.443-12.13 9.207 9.207 0 0 1 12.63-4.36l52.856 26.841 32.805 14.956a8.035 8.035 0 1 1-1.345 10.224Z" fill="#3f3d56"/><path d="M107.007 269.515a2.715 2.715 0 0 1-3.159-.923 3.522 3.522 0 0 0-1.765-1.225 3.239 3.239 0 0 0-.415-.092 5.312 5.312 0 0 1-4.025-2.814c-1.264-2.515-3.92-4.62-6.445-6.13-2.764-1.653-5.659-3.18-7.947-5.447-3.3-3.27-5.236-8.491-1.355-12.776a10.693 10.693 0 0 1 6.363-3.294c5.085-.765 9.926 1.311 14.538 3.342l-1.433-1.696a40.883 40.883 0 0 0 15.915 3.74c-.705 1.026.454 2.473 1.693 2.582a7.149 7.149 0 0 0 3.511-1.111c1.42-.668 3.272-1.074 4.28.57a3.347 3.347 0 0 1 .292 2.667 63.263 63.263 0 0 1-12.13 22.875c-1.24 1.49-2.726 3.017-4.651 3.234s-4.065-1.737-3.267-3.502Z" fill="#3f3d56"/><path d="m150.343 284.085-51.627-24.257a9.207 9.207 0 0 1-4.443-12.13 9.207 9.207 0 0 1 12.63-4.36l52.856 26.841 32.805 14.956a8.035 8.035 0 1 1-1.345 10.224Z" fill="#a0616a"/><path d="M107.007 269.515a2.715 2.715 0 0 1-3.159-.923 3.522 3.522 0 0 0-1.765-1.225 3.239 3.239 0 0 0-.415-.092 5.312 5.312 0 0 1-4.025-2.814c-1.264-2.515-3.92-4.62-6.445-6.13-2.764-1.653-5.659-3.18-7.947-5.447-3.3-3.27-5.236-8.491-1.355-12.776a10.693 10.693 0 0 1 6.363-3.294c5.085-.765 9.926 1.311 14.538 3.342l-1.433-1.696a40.883 40.883 0 0 0 15.915 3.74c-.705 1.026.454 2.473 1.693 2.582a7.149 7.149 0 0 0 3.511-1.111c1.42-.668 3.272-1.074 4.28.57a3.347 3.347 0 0 1 .292 2.667 63.263 63.263 0 0 1-12.13 22.875c-1.24 1.49-2.726 3.017-4.651 3.234s-4.065-1.737-3.267-3.502Z" fill="#6c63ff"/><path fill="#a0616a" d="M104.5 595.099h11.477l5.46-44.271-16.939.001.002 44.27z"/><path d="M119.797 596.132v-7.78l-3.018.184-12.282.727-2.843.175-2.173 26.06-.117 1.397h8.15l.262-1.388 1.183-6.306 3.057 6.306.669 1.388h21.606a4.882 4.882 0 0 0 4.851-4.861c.912-4.26-17.056-13.466-19.345-15.902ZM76.899 374.853l18.031 104.36 7.244 83.607 23.976 4.656 4.357-109.284-13.941-74.835-39.667-8.504z" fill="#2f2e41"/><path fill="#a0616a" d="m194.678 552.577 11.296-2.031-2.457-44.539-16.672 2.998 7.833 43.572z"/><path d="m209.916 550.888-1.376-7.659-2.938.715-11.96 2.89-2.767.674 2.47 26.033.133 1.396 8.021-1.442.013-1.412.05-6.416 4.123 5.666.904 1.247 21.266-3.822a4.882 4.882 0 0 0 3.914-5.642c.144-4.353-19.169-10.237-21.853-12.228ZM63.056 334.156l-.737 19.798s-10.19 44.793 21.82 50.657 75.366 16.46 75.366 16.46l28.645 100.405 17-3s-2-85-5-97 2.488-25.485-24.256-36.743-53.438-29.209-53.438-29.209l-5.89-33.537Z" fill="#2f2e41"/><path d="m64.988 237.506 3.845-11.536a13.575 13.575 0 0 1 12.038-9.256l3.417-.212a13.575 13.575 0 0 1 13.813 9.546 13.524 13.524 0 0 0 11.74 9.516c9.987.85 11.31 21.48 11.31 31.911 0 15.73-10.372 30.63-7 34s9.494 18.913 5 23c-1.172 1.065 1.624 11.332 2 15 .678 6.645-39.309-5.777-52.792-1.969s-6.742-24.719-8.989-26.966c-1.517-1.518 5.9-5.68 4.381-8.222a13.534 13.534 0 0 1-1.657-4.32l-5.87-19.587a13.283 13.283 0 0 1-.156-.976c-.511-4.192-7.354-34.801 4.082-38.96 12.36-4.494 4.838-.969 4.838-.969Z" fill="#6c63ff"/><path d="M251.057 324.466c-3.084-6.326-9.318-10.405-15.264-14.17l-63.068-39.941c-7.22-4.572-15.21-9.332-23.693-8.302-10.486 1.272-17.733 10.767-23.724 19.466-5.433 7.889-11.053 16.295-11.677 25.853-.625 9.559 5.93 20.28 15.506 20.495l-26.475 22.793 37.701.595 1.041-4.008 54.259 28.591c5.49 2.893 11.278 5.861 17.483 5.772 11.175-.16 19.57-9.836 26.397-18.685 8.638-11.197 17.71-25.746 11.514-38.459Z" fill="#fff"/><path d="M254.526 331.656a23.153 23.153 0 0 0-7.233-14.725c-4.266-4.147-9.532-7.164-14.527-10.327l-36.159-22.9-18.5-11.715c-5.474-3.467-10.895-7.202-16.961-9.576-5.471-2.14-11.516-2.772-17.104-.678-4.993 1.87-9.139 5.379-12.643 9.325a120.99 120.99 0 0 0-10.054 13.632c-3.416 5.152-6.615 10.62-8.216 16.64a24.951 24.951 0 0 0 .545 15.64c1.712 4.367 4.687 8.444 8.908 10.667a14.932 14.932 0 0 0 3.115 1.216L101.6 349.6a1.515 1.515 0 0 0 1.061 2.56l37.701.596a1.5 1.5 0 0 0 0-3l-33.739-.533 23.574-20.294a1.516 1.516 0 0 0-1.06-2.56c-9.325-.33-14.594-10.89-13.991-19.21.42-5.796 2.878-11.227 5.784-16.176a141.902 141.902 0 0 1 9.433-13.949c3.04-3.996 6.504-7.9 10.809-10.563a19.571 19.571 0 0 1 15.079-2.466c5.88 1.396 11.091 4.718 16.137 7.912l16.818 10.651 34.477 21.834c5.223 3.308 10.547 6.497 15.649 9.99 4.365 2.99 8.646 6.595 10.772 11.575 4.524 10.595-1.913 22.175-7.86 30.76a115.136 115.136 0 0 1-10.178 12.847c-3.412 3.672-7.325 7.179-12.026 9.091-5.277 2.147-10.695 1.6-15.921-.427a80.773 80.773 0 0 1-8.362-4.043l-9.043-4.765c-11.91-6.276-27.793-26.673-40.96-26.548-3.324.032-6.819 4.76-5.108 5.661l38.378 20.223c6.212 3.274 12.385 6.637 18.65 9.807 5.483 2.772 11.431 5.15 17.693 4.38 11.033-1.358 18.862-10.718 25.235-18.967a89.29 89.29 0 0 0 10.046-15.511c2.508-5.19 4.367-10.986 3.877-16.818Z" fill="#ccc"/><path d="M193.48 310.342c-.04.008-.079.02-.118.028a11.578 11.578 0 0 0-13.71-8.67 11.578 11.578 0 0 0-8.908 13.607h-.004l.033.153 4.847 22.488 22.64-4.88-.014-.065.113-.021a11.58 11.58 0 0 0 8.88-13.76 11.58 11.58 0 0 0-13.76-8.88Z" fill="#6c63ff"/><path d="m433.442 268.18-.004.12a11.578 11.578 0 0 0-12.036 10.874 11.578 11.578 0 0 0 10.71 12.239v.004l.156.01 22.963 1.376 1.386-23.118-.066-.004c.002-.039.007-.077.01-.115a11.58 11.58 0 0 0-10.867-12.253 11.58 11.58 0 0 0-12.252 10.867ZM241.442 107.18l-.004.12a11.578 11.578 0 0 0-12.036 10.874 11.578 11.578 0 0 0 10.71 12.239v.004l.156.01 22.963 1.376 1.386-23.118-.066-.004c.002-.039.007-.077.01-.115a11.58 11.58 0 0 0-10.867-12.253 11.58 11.58 0 0 0-12.252 10.867Z" fill="#e6e6e6"/><path d="m130.839 303.818-47.446-31.665a9.207 9.207 0 0 1-2.59-12.655 9.207 9.207 0 0 1 13.139-2.434l48.276 34.403 30.216 19.668a8.035 8.035 0 1 1-2.85 9.91Z" fill="#a0616a"/><path d="M90.152 282.965a2.715 2.715 0 0 1-2.987-1.382 3.522 3.522 0 0 0-1.564-1.474 3.237 3.237 0 0 0-.396-.153 5.312 5.312 0 0 1-3.562-3.382c-.876-2.674-3.189-5.15-5.462-7.02-2.487-2.045-5.123-3.987-7.048-6.568-2.777-3.724-3.916-9.175.56-12.835a10.693 10.693 0 0 1 6.782-2.311c5.142 0 9.62 2.773 13.88 5.467l-1.166-1.89a40.883 40.883 0 0 0 15.182 6.065c-.85.91.082 2.512 1.29 2.804a7.149 7.149 0 0 0 3.638-.576c1.503-.449 3.395-.575 4.147 1.201a3.347 3.347 0 0 1-.107 2.68 63.262 63.262 0 0 1-15.398 20.817c-1.447 1.288-3.144 2.578-5.08 2.507s-3.761-2.323-2.71-3.95Z" fill="#6c63ff"/><circle cx="83.945" cy="192.736" r="21.522" fill="#a0616a"/><path d="M109.842 183.356a7.337 7.337 0 0 1-4.827 3.629 13.943 13.943 0 0 1-4.35.35 9.585 9.585 0 0 0-2.876-5.05 8.349 8.349 0 0 1-1.103 4.583 48.755 48.755 0 0 1-9.55-2.536c1.412 1.878.531 4.637-.954 6.451-1.496 1.825-3.523 3.183-4.764 5.178s-1.316 5.082.7 6.281c.807.477 1.804.573 2.6 1.072 1.687 1.092 1.75 3.543 1.326 5.506l10.61 10.388a79.854 79.854 0 0 1-12.965 2.705 18.592 18.592 0 0 0-4.987-7.045 14.128 14.128 0 0 1-.085 7.66c-11.767 1.22-25.093 1.22-31.247-1.655 1.58-2.291 3.172-4.583 4.753-6.886a15.432 15.432 0 0 1-16.403-1.474 26.657 26.657 0 0 0 14.409-5.57 18.42 18.42 0 0 0 6.907-13.529c.064-3.851-1.284-7.65-.934-11.48.456-4.912 3.756-9.284 8-11.777a26.162 26.162 0 0 1 14.25-3.14 76.578 76.578 0 0 1 14.567 2.387c1.274.286 2.547.583 3.82.88a44.19 44.19 0 0 1 6.186 1.74 13.027 13.027 0 0 1 6.016 4.266 7.1 7.1 0 0 1 .901 7.066Z" fill="#2f2e41"/><path d="M0 617.913a1.186 1.186 0 0 0 1.19 1.19h253.29a1.19 1.19 0 1 0 0-2.38H1.19a1.187 1.187 0 0 0-1.19 1.19Z" fill="#ccc"/><path d="M471.059 47.313h-281.52a1 1 0 0 1 0-2h280.4c.38.66.75 1.33 1.12 2Z" fill="#f2f2f2"/><ellipse cx="247.112" cy="8.645" rx="8.457" ry="8.645" fill="#f2f2f2"/><ellipse cx="276.326" cy="8.645" rx="8.457" ry="8.645" fill="#f2f2f2"/><path d="M309.637 15.478a.997.997 0 0 1-.715-.3l-5.706-5.834a1 1 0 0 1 0-1.398l5.706-5.833a1 1 0 0 1 1.43 1.399l-5.022 5.133 5.022 5.134a1 1 0 0 1-.715 1.699ZM319.225 15.478a1 1 0 0 1-.714-1.7l5.021-5.133-5.021-5.133a1 1 0 0 1 1.43-1.399l5.705 5.833a1 1 0 0 1 0 1.398l-5.706 5.833a.997.997 0 0 1-.715.3ZM427.309 5.543h-84.81a2.67 2.67 0 0 0 0 5.34h84.81a2.67 2.67 0 0 0 0-5.34Z" fill="#f2f2f2"/><circle cx="415.671" cy="194.083" r="20.773" fill="#f2f2f2"/><path fill="#f2f2f2" d="m463.46 242.068-93-.33 29.326-7.332 3.653-12.06 28.117-.159 8.419 11.926 21.261 5.511 1.931.501.293 1.943zM403.865 207.346c4.458-3.484-1.636-18.812 5.725-15.54 0 0 8.997-5.726 10.805-1.963 2.093 4.356 9.537 2.38 14.109.842a11.108 11.108 0 0 1-.76-2.609 20.887 20.887 0 0 0 2.674 1.791 5.429 5.429 0 0 0 1.636-1.341 3.322 3.322 0 0 0 .417-3.77c-.76-1.17-2.331-1.53-3.256-2.569a1.118 1.118 0 0 1-.153-1.027 2.94 2.94 0 0 0-2.634-3.681 1.057 1.057 0 0 1-.5-.11 11.459 11.459 0 0 1-2.135-1.684c1.071.049-.239-6.51-10.862-5.267-2.675-.099-4.071 2.851-6.705 3.317-6.384-3.648-12.082 1.615-14.855 6.645s-5.774 21.24 6.494 26.966Z"/></svg>