<svg xmlns="http://www.w3.org/2000/svg" width="476.555" height="460.215"><path fill="#ffb6b6" d="m220.214 451.571 11.86-.001 5.64-45.743-17.502.001.002 45.743z"/><path d="M260.845 451.302c.369.622.564 2.63.564 3.352a4.025 4.025 0 0 1-4.025 4.025h-36.726a2.746 2.746 0 0 1-2.746-2.746v-1.529s-1.817-4.595 1.923-10.26c0 0 4.65 4.436 11.596-2.511l2.049-3.711 14.828 10.845 8.22 1.012c1.797.22 3.392-.035 4.317 1.523Z" fill="#2f2e41"/><path fill="#ffb6b6" d="m175.214 451.571 11.86-.001 5.64-45.743-17.502.001.002 45.743z"/><path d="M215.845 451.302c.369.622.564 2.63.564 3.352a4.025 4.025 0 0 1-4.025 4.025h-36.726a2.746 2.746 0 0 1-2.746-2.746v-1.529s-1.817-4.595 1.923-10.26c0 0 4.65 4.436 11.596-2.511l2.049-3.711 14.828 10.845 8.22 1.012c1.797.22 3.392-.035 4.317 1.523ZM166.48 205.856l-15 34 19 186 23.5 1.5 9.5-164.5 9 165 28-3 6.642-209.461-80.642-9.54z" fill="#2f2e41"/><path d="m225.579 70.356-30.099-5.5-6.079 6.078-30.92 12.922 5 97s-10 6.66-5 15.83 4 20.17 4 20.17h84.641l-3.642-55 10-70-23.366-11.063-4.535-10.437Z" fill="#6c63ff"/><circle cx="212.419" cy="35.584" r="26.433" fill="#ffb6b6"/><path d="M193.46 59.05c-3.166.283-8.335-7.818-8.105-15.664.148-5.047-4.234-6.039-4.56-12.548-.189-3.792 5.637-4.975 6.037-8.017.725-5.511 4.281-9.22 4.725-9.671 3.832-3.892 6.537-2.627 11.043-7.137 2.713-2.716 2.018-3.46 3.845-4.665 5.274-3.476 14.75.292 20.416 5.367 1.961 1.756 9.27-.163 12.463 4.796 3.762 5.843 2.888 17.76 1.275 19.332-.98.956-3.218-1.379-9.284-2.877-5.616-1.387-.318 5.472-6.81 4.321-7.678-1.36-9.18-3.697-12.056-2.296-3.04 1.481-5.415 6.067-4.725 9.672.342 1.789 1.334 2.786.774 3.696-1.02 1.66-2.192.032-3.502 1.698-1.523 1.939 2.262 6.912 1.55 7.392-.144.097-.579.084-4.665-3.845-1.631-1.57-2.11-2.533-2.429-2.385-.516.24-3.903 3.395-2.61 5.886 2.013 3.877-.563 3.998 0 6.608.581 2.693-1.369.157-3.381.337Z" fill="#2f2e41"/><path d="M221.56 187.479c-7.794 4.068-12.012 11.386-9.423 16.346s11.006 5.68 18.801 1.61a22.001 22.001 0 0 0 7.909-6.74l32.803-17.652-8.612-15.218-31.424 19.018a22.003 22.003 0 0 0-10.054 2.636Z" fill="#ffb6b6"/><path d="M247.48 92.856s9-6 15 10c4.734 12.622 13.513 49.83 17.008 64.974a11.27 11.27 0 0 1-3.499 10.962l-4.009 3.564-19.5 14.5-13.295-19.347 16.148-9.736-18.416-39.949 10.563-34.968Z" fill="#6c63ff"/><path d="M247.839 175.59v-20.507c0-1.183.962-2.145 2.144-2.145h9.924c1.182 0 2.144.962 2.144 2.145v20.507a2.147 2.147 0 0 1-2.144 2.144h-9.924a2.147 2.147 0 0 1-2.144-2.144Z" fill="#6c63ff"/><circle cx="389.65" cy="113.193" r="29.393" fill="#ff6884"/><path d="m360.624 299.584-33.214.458-13.316-148.478a13.594 13.594 0 0 1 3.194-9.996l32.66-38.156a13.453 13.453 0 0 1 18.082-2.24l40.905 28.983a13.461 13.461 0 0 1 5.674 10.142l29.86 100.315-4.006 33.454.04.046 4.732 24.305-84.611 1.167Z" fill="#e6e6e6"/><path d="m353.666 137.936-.534-6.892a3.313 3.313 0 0 1 3.043-3.555l9.682-.751a3.312 3.312 0 0 1 3.555 3.043l.535 6.891a3.312 3.312 0 0 1-3.043 3.555l-9.683.752a3.313 3.313 0 0 1-3.555-3.043Z" fill="#6c63ff"/><path d="m337.351 193.016-1.979-25.497a3.313 3.313 0 0 1 3.043-3.555l14.334-1.112a3.312 3.312 0 0 1 3.555 3.043l1.979 25.497a3.312 3.312 0 0 1-3.043 3.555l-14.334 1.112a3.313 3.313 0 0 1-3.555-3.043ZM374.384 250.186a3.317 3.317 0 0 1-3.43-2.953l-2.637-24.589a3.28 3.28 0 0 1 1.042-2.78 3.284 3.284 0 0 1 2.851-.826l.74.137a3.313 3.313 0 0 1 2.696 2.998l1.898 24.45a3.282 3.282 0 0 1-.824 2.452 3.278 3.278 0 0 1-2.336 1.11ZM344.045 249.12l-1.985-25.572a3.29 3.29 0 0 1 2.963-3.548l13.004-1.329c1.803-.165 3.433 1.134 3.626 2.94l2.76 25.831a3.283 3.283 0 0 1-.746 2.467 3.282 3.282 0 0 1-2.288 1.184l-13.779 1.07a3.313 3.313 0 0 1-3.555-3.044Z" fill="#3f3d56"/><path d="m422.406 260.617 11.62 17.36 2.756 20.325 8.171-.115-4.668-23.97-18.55-21.959a8.593 8.593 0 0 0 .67 8.359Z" fill="#ccc"/><path fill="#3f3d56" d="m402.896 295.51 33.106-3.026.042.465-33.106 3.026zM402.27 291.219l31.404-2.684.04.465-31.405 2.684zM401.704 287.386l30.013-2.92.045.465-30.013 2.92zM401.669 283.566l28.79-3.199.052.464-28.79 3.199zM401.119 279.888l27.658-3.127.052.464-27.658 3.127zM399.658 275.732l27.011-2.096.037.465-27.012 2.096zM398.79 272.824l26.228-2.345.042.466-26.228 2.345zM397.993 270.154l25.372-2.819.052.464-25.372 2.819zM397.103 266.559l25.084-2.391.044.464-25.084 2.391zM396.08 263.71l23.993-2.619.05.465-23.992 2.618zM395.107 260.408l23.821-2.083.04.466-23.82 2.083z"/><path d="m392.603 250.732-2.448-31.544a3.313 3.313 0 0 1 3.043-3.555l15.264-1.185a3.313 3.313 0 0 1 3.555 3.043l2.448 31.545a3.312 3.312 0 0 1-3.042 3.554l-15.265 1.185a3.313 3.313 0 0 1-3.555-3.043Z" fill="#6c63ff"/><path d="m360.624 299.584-27.155.376-.219.003-1.623-20.912a4.816 4.816 0 0 1 4.424-5.169l26.69-2.071a4.816 4.816 0 0 1 5.168 4.424l1.758 22.648-.233.018-8.81.683Z" fill="#ccc"/><path d="m390.024 193.374-1.87-24.102a3.313 3.313 0 0 1 3.042-3.555l5.031-.39a3.312 3.312 0 0 1 3.555 3.043l1.87 24.102a3.312 3.312 0 0 1-3.042 3.555l-5.031.39a3.313 3.313 0 0 1-3.555-3.043Z" fill="#3f3d56"/><path d="m403.338 298.61-2.984-20.36-5.702-19.21-1.578-5.26c-2.516-1.439-5.594.618-5.225 3.493l.29 2.272 5.703 19.211 2.984 20.359" fill="#ccc"/><path d="m69.084 303.336-33.214.459-13.316-148.478a13.594 13.594 0 0 1 3.194-9.997l32.66-38.155a13.453 13.453 0 0 1 18.082-2.24l40.905 28.983a13.461 13.461 0 0 1 5.674 10.142l29.86 100.314-4.006 33.454.04.046 4.733 24.305-84.612 1.167Z" fill="#e6e6e6"/><path d="m62.127 141.688-.535-6.891a3.313 3.313 0 0 1 3.043-3.555l9.682-.752a3.312 3.312 0 0 1 3.555 3.043l.535 6.892a3.312 3.312 0 0 1-3.043 3.555l-9.682.751a3.313 3.313 0 0 1-3.555-3.043Z" fill="#6c63ff"/><path d="m45.811 196.769-1.978-25.498a3.313 3.313 0 0 1 3.043-3.555l14.334-1.112a3.312 3.312 0 0 1 3.554 3.043l1.98 25.497A3.312 3.312 0 0 1 63.7 198.7l-14.334 1.113a3.313 3.313 0 0 1-3.555-3.043ZM82.844 253.938a3.317 3.317 0 0 1-3.43-2.953l-2.636-24.588a3.28 3.28 0 0 1 1.04-2.78 3.284 3.284 0 0 1 2.852-.827l.74.137a3.313 3.313 0 0 1 2.696 2.998l1.898 24.451a3.282 3.282 0 0 1-.824 2.452 3.278 3.278 0 0 1-2.336 1.11ZM52.505 252.872 50.521 227.3a3.29 3.29 0 0 1 2.962-3.548l13.004-1.328c1.804-.165 3.433 1.134 3.626 2.94l2.76 25.83a3.283 3.283 0 0 1-.746 2.467 3.282 3.282 0 0 1-2.288 1.184l-13.779 1.07a3.313 3.313 0 0 1-3.555-3.043Z" fill="#3f3d56"/><path d="m130.866 264.37 11.62 17.36 2.756 20.324 8.171-.114-4.668-23.972-18.55-21.957a8.593 8.593 0 0 0 .67 8.358Z" fill="#ccc"/><path fill="#3f3d56" d="m111.356 299.262 33.106-3.026.042.466-33.106 3.025zM110.73 294.972l31.404-2.684.04.465-31.405 2.684zM110.164 291.139l30.013-2.92.045.465-30.012 2.92zM110.129 287.318l28.79-3.199.052.464-28.79 3.199zM109.579 283.64l27.658-3.127.052.464-27.658 3.127zM108.118 279.484l27.011-2.096.036.465-27.011 2.096zM107.25 276.576l26.228-2.345.041.466-26.227 2.345zM106.453 273.906l25.372-2.819.052.464-25.372 2.819zM105.563 270.312l25.084-2.391.044.464-25.084 2.391zM104.54 267.461l23.992-2.618.051.465-23.992 2.618zM103.567 264.16l23.821-2.083.04.466-23.82 2.083z"/><path d="m101.063 254.485-2.448-31.545a3.313 3.313 0 0 1 3.043-3.555l15.265-1.184a3.313 3.313 0 0 1 3.554 3.043l2.448 31.544a3.312 3.312 0 0 1-3.042 3.555l-15.265 1.184a3.313 3.313 0 0 1-3.555-3.042Z" fill="#6c63ff"/><path d="m69.084 303.336-27.155.376-.219.003-1.622-20.912a4.816 4.816 0 0 1 4.424-5.168l26.689-2.072a4.816 4.816 0 0 1 5.168 4.425l1.758 22.647-.233.018-8.81.683Z" fill="#ccc"/><path d="m98.484 197.127-1.87-24.102a3.313 3.313 0 0 1 3.042-3.555l5.031-.39a3.312 3.312 0 0 1 3.555 3.042l1.87 24.102a3.312 3.312 0 0 1-3.042 3.555l-5.031.39a3.313 3.313 0 0 1-3.555-3.042Z" fill="#3f3d56"/><path d="m111.798 302.362-2.983-20.359-5.703-19.211-1.578-5.26c-2.516-1.439-5.593.619-5.225 3.494l.29 2.271 5.703 19.212 2.984 20.358" fill="#ccc"/><path d="m244.223 301.13-33.213.458-13.316-148.477a13.594 13.594 0 0 1 3.194-9.997l32.66-38.155a13.453 13.453 0 0 1 18.082-2.24l40.905 28.982c3.337 2.365 21.29 15.782 21.559 19.863l-8.532 102.149 18.501 21.899.04.046 4.732 24.305-84.612 1.167Z" fill="#e6e6e6"/><path d="m237.266 139.482-.534-6.891a3.313 3.313 0 0 1 3.043-3.555l9.682-.752a3.312 3.312 0 0 1 3.555 3.043l.535 6.892a3.312 3.312 0 0 1-3.043 3.555l-9.682.751a3.313 3.313 0 0 1-3.556-3.043Z" fill="#6c63ff"/><path d="m220.951 194.563-1.979-25.498a3.313 3.313 0 0 1 3.044-3.555l14.333-1.112a3.313 3.313 0 0 1 3.555 3.043l1.979 25.497a3.313 3.313 0 0 1-3.043 3.555l-14.334 1.113a3.313 3.313 0 0 1-3.555-3.043ZM253.276 221.753a2.816 2.816 0 0 0-.894 2.388l2.637 24.588a2.849 2.849 0 0 0 2.945 2.537 2.793 2.793 0 0 0 2.007-.954c.517-.582.768-1.33.708-2.106l-1.898-24.451a2.845 2.845 0 0 0-2.316-2.575l-.74-.137a2.817 2.817 0 0 0-2.45.71ZM213.96 254.22a3.283 3.283 0 0 1-1.192-2.296l-1.897-24.45a3.313 3.313 0 0 1 2.201-3.378l.71-.25a3.285 3.285 0 0 1 2.945.376 3.28 3.28 0 0 1 1.458 2.587l1.187 24.7a3.316 3.316 0 0 1-3.052 3.458 3.283 3.283 0 0 1-2.36-.747Z" fill="#3f3d56"/><path d="m306.006 262.163 11.62 17.36 2.756 20.325 8.171-.114-4.668-23.972-18.55-21.958a8.593 8.593 0 0 0 .67 8.36Z" fill="#ccc"/><path fill="#3f3d56" d="m286.496 297.056 33.106-3.026.042.466-33.106 3.025zM285.87 292.766l31.404-2.684.04.465-31.405 2.684zM285.304 288.933l30.013-2.92.045.465-30.012 2.92zM285.269 285.112l28.79-3.199.052.464-28.79 3.199zM284.718 281.434l27.658-3.127.052.464-27.658 3.127zM283.258 277.278l27.011-2.096.036.465-27.011 2.096zM282.39 274.37l26.228-2.345.041.466-26.227 2.345zM281.593 271.7l25.372-2.819.052.464-25.372 2.819zM280.703 268.106l25.084-2.391.044.464-25.084 2.391zM279.68 265.255l23.992-2.618.051.465-23.992 2.618zM278.707 261.954l23.821-2.083.04.466-23.82 2.083z"/><path d="m276.203 252.279-2.448-31.545a3.313 3.313 0 0 1 3.043-3.555l15.264-1.185a3.313 3.313 0 0 1 3.555 3.044l2.448 31.544a3.312 3.312 0 0 1-3.042 3.555l-15.265 1.184a3.313 3.313 0 0 1-3.555-3.042Z" fill="#6c63ff"/><path d="m244.223 301.13-27.154.376-.219.003-1.623-20.912a4.816 4.816 0 0 1 4.425-5.168l26.689-2.072a4.816 4.816 0 0 1 5.168 4.424l1.758 22.648-.233.018-8.81.683Z" fill="#ccc"/><path d="m273.624 194.92-1.87-24.101a3.313 3.313 0 0 1 3.042-3.555l5.031-.39a3.312 3.312 0 0 1 3.555 3.042l1.87 24.102a3.312 3.312 0 0 1-3.042 3.555l-5.031.39a3.313 3.313 0 0 1-3.555-3.042Z" fill="#3f3d56"/><path d="m286.938 300.156-2.984-20.359-5.702-19.211-1.578-5.26c-2.516-1.439-5.594.619-5.225 3.494l.29 2.271 5.703 19.212 2.984 20.358" fill="#ccc"/><path fill="#ccc" d="m51.19 303.308 425.353-5.514.012.933-425.352 5.514z"/><circle cx="193.282" cy="141.571" r="19.051" fill="#6c63ff"/><path d="M205.646 121.5c-1.113-.65-2.81-.312-3.42.898a63.424 63.424 0 0 0-5.319 14.944l-5.488-6.765c-.851-1.05-2.65-.885-3.536 0-1.037 1.037-.853 2.484 0 3.536l8.737 10.769c.615.758 1.906.88 2.73.517.996-.438 1.402-1.246 1.538-2.285.825-6.313 2.786-12.516 5.654-18.193.61-1.204.318-2.71-.896-3.42Z" fill="#fff"/><path d="M203.763 183.364c8.551 2.041 16.536-.716 17.834-6.158 1.298-5.442-4.581-11.507-13.136-13.548a22.001 22.001 0 0 0-10.39-.099l-36.34-8.191-3.48 17.135 36.194 6.256a22.003 22.003 0 0 0 9.318 4.605Z" fill="#ffb6b6"/><path d="m164.48 88.856-6-5s-12 6-14 11-14 53-14 53-2.354 26.306 3.823 29.653 45.177 1.347 45.177 1.347l3-20-16-6-2-64Z" fill="#6c63ff"/><g fill="#f2f2f2"><path d="M403.784 368.95c-.844-1.424-4.497.1-5.168-1.192-.67-1.287 2.724-3.249 4.663-7.73.35-.808 2.553-5.9.922-7.472-3.092-2.978-17.24 9.313-22.19 5.29-1.087-.882-1.847-2.644-5.135-5.505-1.308-1.138-2.1-1.652-2.865-1.46-1.086.27-1.173 1.724-2.337 4.583-1.747 4.287-2.78 4.029-3.799 7.45-.755 2.538-.583 4.015-1.472 4.302-1.258.407-2.416-2.286-4.01-2.045-1.628.246-2.612 3.382-2.922 5.73-.584 4.406 1.034 7.314 1.931 10.37.975 3.323 1.553 8.376-.697 15.528l-22.278 62.766c4.919-12.879 19.159-48.185 25.143-61.305 1.727-3.787 3.634-7.629 7.55-9.145 3.771-1.46 8.95-.588 15.55-2.179.772-.185 2.911-.73 3.18-1.988.223-1.04-1.035-1.621-.842-2.596.26-1.307 2.734-1.323 5.776-2.83 2.144-1.064 3.48-2.329 4.629-3.416.346-.328 5.495-5.262 4.371-7.157Z"/><path d="M316.139 401.992c-.942.004-1.248 2.236-2.076 2.193-.825-.043-.809-2.275-2.448-4.52-.296-.404-2.16-2.955-3.401-2.608-2.354.659-.404 11.149-3.807 12.418-.746.279-1.83.143-4.183.932-.936.313-1.417.553-1.544.984-.18.612.508 1.074 1.575 2.47 1.6 2.095 1.175 2.527 2.56 4.014 1.029 1.103 1.803 1.444 1.688 1.964-.164.735-1.82.526-2.161 1.378-.349.87.906 2.257 1.969 3.087 1.994 1.558 3.888 1.603 5.647 2.045 1.912.48 4.559 1.654 7.42 4.822l24.378 29.044c-4.902-6.13-18.121-23.306-22.834-30.028-1.36-1.941-2.696-3.986-2.31-6.345.371-2.272 2.293-4.562 3.417-8.261.132-.432.482-1.64-.058-2.134-.446-.41-1.095.04-1.517-.336-.567-.504.14-1.724.277-3.651.097-1.36-.138-2.38-.34-3.258-.062-.264-.998-4.215-2.252-4.21ZM334.939 406.212l-.568-5.068.26-.384c1.2-1.777 1.811-3.512 1.819-5.16 0-.261-.011-.523-.024-.79-.049-1.057-.11-2.37.576-3.903.384-.854 1.463-2.831 3.085-2.587.437.062.768.262 1.018.497l.115-.18c.506-.772.906-1.102 1.291-1.42.296-.245.602-.497 1.082-1.094.21-.262.374-.492.513-.685.42-.585.968-1.283 1.934-1.27 1.033.048 1.574.903 1.932 1.468.64 1.008.93 1.735 1.122 2.217.07.176.15.374.19.436.333.489 3.038.031 4.058-.135 2.289-.382 4.27-.712 5.086.732.585 1.032.15 2.398-1.33 4.167-.461.55-.952.97-1.388 1.297.361.216.684.546.815 1.065.309 1.228-.747 2.46-3.137 3.663-.593.301-1.392.703-2.512.896a9.867 9.867 0 0 1-1.408.125c-.009.235-.064.49-.207.751-.42.771-1.294 1.138-2.61 1.05-1.449-.076-2.642-.352-3.694-.595-.92-.21-1.71-.389-2.332-.347-1.153.093-2.041 1.015-3.084 2.212l-2.602 3.042ZM337.572 376.036l-4.758 1.835-.438-.154c-2.023-.71-3.856-.862-5.451-.451-.254.065-.504.143-.759.223-1.01.315-2.266.708-3.921.434-.924-.155-3.11-.698-3.285-2.33a1.838 1.838 0 0 1 .222-1.11l-.204-.065c-.874-.294-1.295-.597-1.7-.889-.312-.224-.634-.456-1.333-.769-.307-.137-.57-.237-.793-.322-.672-.258-1.486-.61-1.72-1.549-.214-1.011.475-1.751.931-2.241a12.216 12.216 0 0 1 1.86-1.648c.153-.112.324-.24.373-.294.39-.446-.74-2.947-1.16-3.89-.949-2.118-1.771-3.95-.581-5.106.85-.828 2.281-.754 4.368.229.65.307 1.18.675 1.607 1.013.117-.404.354-.8.823-1.058 1.11-.61 2.568.1 4.34 2.105.441.498 1.032 1.17 1.503 2.203.221.487.363.94.478 1.33.23-.05.49-.062.779.01.852.21 1.429.963 1.678 2.259.294 1.42.329 2.644.361 3.724.03.942.058 1.753.256 2.344.382 1.091 1.5 1.716 2.922 2.421l3.602 1.746ZM334.939 361.105l-.568-5.068.26-.384c1.2-1.777 1.811-3.512 1.819-5.159 0-.262-.011-.524-.024-.79-.049-1.058-.11-2.372.576-3.904.384-.854 1.463-2.831 3.085-2.586.437.06.768.261 1.018.496l.115-.18c.506-.772.906-1.102 1.291-1.42.296-.245.602-.497 1.082-1.094.21-.262.374-.492.513-.685.42-.585.968-1.283 1.934-1.27 1.033.049 1.574.903 1.932 1.468.64 1.008.93 1.735 1.122 2.217.07.176.15.375.19.436.333.49 3.038.032 4.058-.135 2.289-.382 4.27-.712 5.086.732.585 1.033.15 2.398-1.33 4.167-.461.551-.952.97-1.388 1.297.361.216.684.546.815 1.065.309 1.228-.747 2.46-3.137 3.663-.593.301-1.392.703-2.512.896a9.867 9.867 0 0 1-1.408.125c-.009.235-.064.49-.207.751-.42.771-1.294 1.138-2.61 1.05-1.449-.076-2.642-.352-3.694-.595-.92-.21-1.71-.389-2.332-.347-1.153.093-2.041 1.016-3.084 2.212l-2.602 3.042Z"/><path d="m340.124 459.483-1.062-.666-.257-1.226.257 1.226-1.238.142c-.02-.115-.087-.38-.189-.793-.554-2.266-2.244-9.162-3.653-20.023a204.149 204.149 0 0 1-1.656-23.17c-.115-7.807.255-13.717.55-18.467.225-3.582.496-6.994.763-10.317.71-8.879 1.379-17.265.881-26.55-.11-2.073-.341-6.387-2.862-10.978-1.462-2.663-3.476-5.027-5.987-7.023l1.561-1.963c2.772 2.207 5 4.826 6.624 7.782 2.794 5.09 3.046 9.791 3.168 12.05.506 9.449-.17 17.916-.888 26.88-.264 3.311-.536 6.708-.758 10.276-.294 4.706-.66 10.565-.546 18.27.113 7.702.663 15.401 1.634 22.887 1.392 10.724 3.057 17.517 3.604 19.75.292 1.191.353 1.44.054 1.913Z"/><path d="M321.075 345.62c-.103 0-.207-.003-.312-.01-2.134-.116-4.11-1.393-5.874-3.796-.828-1.13-1.251-2.42-2.095-4.993-.131-.396-.767-2.408-1.154-5.175-.253-1.809-.222-2.565.137-3.233.398-.744 1.041-1.263 1.766-1.613a1.416 1.416 0 0 1 .097-.739c.428-1.045 1.563-.908 2.177-.842.311.04.699.09 1.117.069.659-.032 1.012-.228 1.548-.521.513-.282 1.15-.632 2.096-.825 1.865-.39 3.428.14 3.943.313 2.71.903 4.046 3.01 5.593 5.45.308.49 1.367 2.271 2.065 4.713.504 1.762.433 2.545.282 3.128-.309 1.196-1.037 1.882-2.886 3.394-1.93 1.583-2.9 2.376-3.732 2.858-1.937 1.119-3.153 1.821-4.768 1.821Z"/></g><path d="M428.04 458.343a.84.84 0 0 1-.84.84H.84a.84.84 0 0 1 0-1.68H427.2a.84.84 0 0 1 .84.84Z" fill="#e6e6e6"/></svg>