<svg xmlns="http://www.w3.org/2000/svg" width="722.73" height="493.998" data-name="Layer 1"><path fill="#f2f2f2" d="M251.111 473.2a2.807 2.807 0 0 1-2.034-4.867l.192-.765-.076-.183a7.54 7.54 0 0 0-13.907.052c-2.275 5.478-5.17 10.965-5.884 16.757a22.304 22.304 0 0 0 .392 7.67 89.42 89.42 0 0 1-8.134-37.138 86.307 86.307 0 0 1 .535-9.628q.444-3.931 1.23-7.807a90.456 90.456 0 0 1 17.939-38.337 24.073 24.073 0 0 0 10.012-10.387 18.363 18.363 0 0 0 1.67-5.018c-.488.064-1.838-7.36-1.47-7.815-.68-1.03-1.896-1.543-2.637-2.549-3.69-5.002-8.773-4.128-11.427 2.67-5.668 2.86-5.723 7.605-2.245 12.168 2.213 2.904 2.517 6.832 4.459 9.94-.2.256-.408.504-.607.76a91.04 91.04 0 0 0-9.503 15.053 37.846 37.846 0 0 0-2.26-17.579c-2.162-5.217-6.215-9.61-9.785-14.121-4.288-5.418-13.08-3.053-13.836 3.814l-.021.2q.795.448 1.557.952a3.808 3.808 0 0 1-1.536 6.93l-.077.012a37.89 37.89 0 0 0 .999 5.665c-4.58 17.71 5.307 24.16 19.424 24.45.311.16.615.32.927.472a92.925 92.925 0 0 0-5.002 23.54 88.137 88.137 0 0 0 .064 14.23l-.024-.168a23.29 23.29 0 0 0-7.95-13.448c-6.119-5.025-14.763-6.876-21.363-10.916a4.37 4.37 0 0 0-6.694 4.252l.027.176a25.578 25.578 0 0 1 2.868 1.383q.795.448 1.557.952a3.808 3.808 0 0 1-1.535 6.93l-.078.012-.16.024a37.923 37.923 0 0 0 6.976 10.923c2.863 15.46 15.162 16.927 28.317 12.424h.008a92.897 92.897 0 0 0 6.24 18.218h22.294c.08-.247.151-.503.223-.75a25.329 25.329 0 0 1-6.168-.368c1.654-2.03 3.308-4.075 4.962-6.105a1.383 1.383 0 0 0 .104-.12c.839-1.038 1.686-2.07 2.525-3.108v-.001a37.101 37.101 0 0 0-1.087-9.451Z"/><path fill="#a0616a" d="m79.642 439.481 6.151 6.501 28.561-21.16-9.078-9.595-25.634 24.254z"/><path fill="#2f2e41" d="m89.722 443.077-6.964-6.542-1.71-1.602-17.728 14.174 4.612 4.874 5.428-3.481-2.494 6.583 12.227 12.922a4 4 0 0 0 6.86-3.356l-2.638-17.071 4.65-4.398ZM214.824 202.78l-1.95 21.29s-3.404 16.04-1.047 14.74-1.869 4.551-.756 9.625-9.507 42.915-4.697 38.995-2.78 23.16-7.58 36.52c-1.47 4.13-2.98 8.31-4.5 12.46-.3.84-.6 1.67-.91 2.51-1.97 5.4-3.94 10.72-5.83 15.74-.27.7-.53 1.4-.79 2.09-.01.02-.01.04-.02.04-6.22 16.37-11.55 29.25-13.68 31.38-1.11 1.11-18.72 13.83-36.47 26.57-18.63 13.37-37.41 26.77-37.41 26.77l-17.54-18.4s.42-.12 1.21-.36c1.46-.42 4.16-1.21 7.7-2.26 14.76-4.35-3.99-11.12 9.41-15.96 3.78-1.36 6.3-2.42 6.87-2.98 3.33-3.25 7.8-11 9.91-7.75s11.68-20.9 14.44-23.29c1.48-1.29 6.31-7.32 10.45-12.62 3.56-4.56 6.62-8.59 6.62-8.59s.06-2.16.15-5.6c.13-5.09.32-13 .52-20.92-.01-.01-.01-.01 0-.01.07-2.98.14-5.96.21-8.79.05-2.19.1-4.3.15-6.25.13-5.84.22-10.26.22-11.36 0-3.61 0-.8 2.85-2.98a12.889 12.889 0 0 0 1.21-1.08 14.592 14.592 0 0 0 1.68-1.79c.21-.45-1.1.16-2.8-.18a5.085 5.085 0 0 1-2.46-1.26c-3.58-3.22.28-13.12.28-13.12-8.14-16.28-7.55-29.63-3.74-39.92a51.208 51.208 0 0 1 13.21-19.35 47.803 47.803 0 0 1 7.23-5.67l.25-1.35 2.75-14.89a33.18 33.18 0 0 1 4.55-2.07 31.584 31.584 0 0 1 15.26-1.52 45.548 45.548 0 0 1 14.61 4.73 54.067 54.067 0 0 1 10.44 6.86Z"/><path fill="#a0616a" d="m138.02 472.651 8.911.829 7.509-34.744-13.153-1.223-3.267 35.138z"/><path fill="#2f2e41" d="m163.684 486.27-13.24-11.09.6-6.38-3.08-.1-9.54-.31h-.01l-2.34-.08-3.97 22.34 6.69.62 1.77-6.2 2.47 6.6 3.54.33 14.17 1.32c.12.01.25.02.37.02a3.973 3.973 0 0 0 2.98-1.34 3.916 3.916 0 0 0 1.01-2.3 3.995 3.995 0 0 0-1.42-3.43ZM187.554 354.66c-3.39 18.45-17.74 61.71-26.42 87.03-3.95 11.57-6.71 19.4-6.71 19.4l-4.5-1.42h-.01l-7.61-2.4-2.77-.88h-.01l-3.36-1.07s.39-20.66.43-40.58c.03-8.35-.01-16.58-.17-23.1-.18-7.11-.49-12.2-1-13.21-2.11-4.14 1.42-4.58 5.15-5.62 3.74-1.05.82-2.63-.63-5.99-.98-2.24.95-5.23 2.32-6.93a16.711 16.711 0 0 1 1.21-1.37s-.66-.23-1.84-.63c3.56-4.56 6.62-8.59 6.62-8.59s.06-2.16.15-5.6c.13-5.09.32-13 .52-20.92-.01-.01-.01-.01 0-.01.07-2.98.14-5.96.21-8.79 5.72 4.39 11.28 8.69 16.32 12.67a.05.05 0 0 1 .02.04c12.11 9.57 21.2 17.25 22.48 19.69.58 1.1.38 4.04-.4 8.28Z"/><path fill="#ffb6b6" d="M485.683 28.893a6.427 6.427 0 0 1 6.979 5.626 6.166 6.166 0 0 1 .022 1.02l20.622 8.806-.787 12.036-26.945-15.118a6.41 6.41 0 0 1-5.482-5.583 6.134 6.134 0 0 1 5.423-6.771q.084-.01.168-.016Z"/><path fill="#e6e6e6" d="M625.984 103.19a18.901 18.901 0 0 0-2.79-6.53 16.907 16.907 0 0 0-1.21-1.62c-1.62-1.93-3.13-3.7-4.53-5.28-.85-.99-1.68-1.91-2.46-2.76-4.53-4.97-7.5-7.6-8.86-7.82-.66-.11-1.31-.19-1.94-.27-3.23-.4-5.57-.69-5.64-4.1a8.877 8.877 0 0 1 .1-1.46 17.848 17.848 0 0 1 .53-2.4 10.606 10.606 0 0 0 .31-1.36c.1-.59.06-1.03-.26-1.3-.4-.33-1.07-.28-2.33.22-.2.08-.43.17-.67.28-.08.03-.16.07-.25.11-.16.07-.34.15-.52.24-1.51.72-3.84.81-6.5.54-7.85-.8-18.47-4.76-18.6-4.81l-66.88-25.99-.62 1-1.47 2.38-.51.82-.58.94-2.53 4.08-1.28 2.06 21.6 16.29 2.35 1.77 2.02 1.53 41.24 31.11 15.38 10.15 3.43 2.26 14.62 9.64a18.858 18.858 0 0 0 26.4-5.76 18.905 18.905 0 0 0 2.45-13.96ZM721.73 493.998H1a1 1 0 0 1 0-2h720.73a1 1 0 0 1 0 2Z"/><path fill="#ffb6b6" d="m164.915 166.791 1.874 17.382-1.102 22.792 50.485-5.997 4.743-34.177-6.044.06-49.956-.06z"/><path fill="#e6e6e6" d="m207.858 110.65-19-15-9.974-.58-14.799 9.48-3.624 18.487-8.57 20.819 12.57 56.181s1.18 4.032-1.91 4.516-2.72 6.427-2.72 6.427.63 5.15-2.37 5.604-11 .453-4 9.453 62.366-25.039 62.366-25.039l8.041-42.194s15.596-20.946-1.2-32.943Z"/><path fill="#a0616a" d="M124.914 238.208a9.157 9.157 0 0 1 2.764-13.767l23.899-80.205 14.943 7.523-26.026 76.876a9.207 9.207 0 0 1-15.58 9.573Z"/><path fill="#e6e6e6" d="M167.517 103.808s-4.272-2.27-7.194 7.554c-2.339 7.865-21.32 54.713-21.562 66.103a7.194 7.194 0 0 0-5.697 6.733l23.47 3.145c4.1-3.459 5.176-8.13 3.59-9.517l5.095-13.917 21.258-44.28-15.843-14.235Z"/><path fill="#a0616a" d="M292.918 211.845a9.157 9.157 0 0 0-8.445-11.219l-54.824-62.613-11.63 13.877 56.712 58.06a9.207 9.207 0 0 0 18.187 1.895Z"/><path fill="#e6e6e6" d="M196.385 109.085s2.87-3.895 9.753 3.7c5.51 6.08 42.884 40.113 48.028 50.278a7.194 7.194 0 0 1 8.047 3.608l-19.8 12.984c-5.194-1.345-8.184-5.092-7.353-7.028l-10.613-10.345-38.316-30.732 8.129-19.687Z"/><circle cx="400.827" cy="140.998" r="140" fill="#6c63ff"/><path d="M394.205 190.548a34.199 34.199 0 0 1-48.365 0 34.205 34.205 0 0 1-4.621-42.617l-7.524 7.676a34.199 34.199 0 0 0 0 48.364 34.199 34.199 0 0 0 48.364 0l16.674-17.312.253-1.076ZM410.088 83.59a34.199 34.199 0 0 1 47.517 9.015 34.205 34.205 0 0 1-3.403 42.732l8.823-6.14a34.199 34.199 0 0 0 9.014-47.517 34.199 34.199 0 0 0-47.517-9.014l-19.608 13.901-.45 1.01Z" opacity=".2"/><path fill="#fff" d="M357.877 218.267a37.199 37.199 0 0 1-26.303-63.503l31.568-32.207a37.198 37.198 0 0 1 52.628-.021 3 3 0 0 1-4.242 4.242 31.2 31.2 0 0 0-44.122 0c-4.637 16.346-14.655 27.562-31.569 32.207a31.2 31.2 0 1 0 44.101 44.144c-.683-6.706 1.276-13.01 16.634-17.273a3 3 0 1 1 4.321 4.162l-16.673 17.313a36.985 36.985 0 0 1-26.343 10.936Z"/><path fill="#fff" d="M409.129 172.704a36.956 36.956 0 0 1-26.304-10.896 3 3 0 0 1 4.243-4.242 31.198 31.198 0 0 0 44.121 0c3.999-24.085 20.299-27.484 34.467-34.466a31.2 31.2 0 0 0-44.122-44.122c-3.942 11.371-7.811 22.876-19.55 19.55a3 3 0 0 1-4.242-4.243l19.55-19.55a37.199 37.199 0 1 1 52.606 52.607l-34.466 34.466a36.955 36.955 0 0 1-26.303 10.896Z"/><path fill="#3f3d56" d="M522.464 69.75a142.542 142.542 0 0 0-21.07-27.49c-1.81-1.84-3.68-3.64-5.59-5.39a143.289 143.289 0 0 0-9.59-8.01A140.286 140.286 0 0 0 400.824 0c-77.74 0-141 63.25-141 141a140.732 140.732 0 0 0 2.33 25.56.765.765 0 0 0 .02.14c.71 3.87 1.59 7.69 2.61 11.44a140.99 140.99 0 0 0 255.75 37.31q2.925-4.71 5.5-9.66a140.803 140.803 0 0 0-3.57-136.04ZM400.824 280a138.952 138.952 0 0 1-139-139c0-76.65 62.36-139 139-139a138.954 138.954 0 0 1 99.48 42.02 133.065 133.065 0 0 1 9.54 10.86 134.828 134.828 0 0 1 8.25 11.57 138.927 138.927 0 0 1 16.2 113.41c-1.23 4.24-2.67 8.39-4.29 12.46-1.63 4.08-3.44 8.08-5.44 11.96A139.472 139.472 0 0 1 400.824 280Z"/><path fill="#ffb6b6" d="m592.636 472.969-9.191-.078-4.069-36.279 13.566.115-.306 36.242z"/><path fill="#2f2e41" d="m595.074 468.73-2.4-.16-9.79-.67-3.15-.21-.06 6.57-14.68 9.96a4.11 4.11 0 0 0 2.28 7.51l18.27.15 3.2-6.48 1.17 6.52 6.9.06Z"/><path fill="#ffb6b6" d="m689.407 466.253-8.785 2.701-14.83-33.358 12.967-3.986 10.648 34.643z"/><path fill="#2f2e41" d="m690.454 461.48-2.34.57-9.53 2.31-3.07.75 1.93 6.29-10.99 13.92a4.116 4.116 0 0 0 3.23 6.66 4.155 4.155 0 0 0 1.2-.18l17.47-5.37 1.09-7.15 3.09 5.86 6.59-2.03ZM574.149 167.916l-17.54 50.974-.58 4.079c-4.42 4.196 1.133 5.578-.95 6.685s-3.48 4.209-.676 4.763 11.85 199.373 23.781 207.093 19.191 13.303 17 2c-.883-4.554.366-28.972 2.172-56.508.205-3.12 3.438-6.424.633-9.458s.346-5.03.522-7.549c2.516-35.957 5.422-71.456 5.422-71.456s18.594 63.857 23.423 58.914 2.917 7.228 4.392 10.865c1.233 3.039-4.027 9.009 3.704 9.1s25.89 62.162 27.732 62.092c3.65-.14 13.908.254 20-1 3.009-.62-10.345-47.613-21.496-88.193-.89-3.236-5.73-3.312-2.616-9.56s-12.375-46.674-11.046-48.543c3.528-4.963 4.87-7.12 1.392-7.445s-4.507 1.583-4.694-3.23-.789-16.686-.789-16.686-2.52-46.949-20.166-72.887l-1.505-15.412Z"/><path fill="#e6e6e6" d="m617.969 70.594-23.26 3.312-1.404 16.843-11.479 17.955s-25.513 17.955-7.72 46.318c-6.771 24.434-13.503 47.866-19.922 63.488-5 31 39.793 33.971 91 23 0 0-.706-13.255-5.353-19.628s-2.117-7.764-2.117-7.764l-3.247-11.905c1.837-17.208-4.367-18.753-7.283-26.703l8.853-82.495Z"/><path fill="#ffb6b6" d="M506.305 214.786a6.427 6.427 0 0 1 7.13-5.435 6.165 6.165 0 0 1 .995.221l13.473-17.924 11.5 3.637-21.111 22.558a6.41 6.41 0 0 1-6.73 3.992 6.134 6.134 0 0 1-5.282-6.883l.025-.166Z"/><path fill="#e6e6e6" d="M625.984 103.19c-.33-.41-.69-.81-1.07-1.2a18.832 18.832 0 0 0-20.83-4.24c-.34.14-.68.3-1.01.46-11.95 5.87-18.4 9.78-19.18 11.61-.27.62-.5 1.23-.73 1.82-.22.58-.43 1.13-.65 1.63-.92 2.14-1.98 3.47-4.68 2.87a10.804 10.804 0 0 1-2.57-.99c-.37-.18-.71-.37-1.03-.55-1.16-.64-2-1.1-2.57-.68-.55.41-.57 1.45-.07 3.86a8.05 8.05 0 0 1-.08 3.03 34.443 34.443 0 0 1-3.08 8.35 110.226 110.226 0 0 1-6.98 11.98l-23.79 33.92-1.61 2.29-1.76 2.51-14.04 20.02.83.85 3.48 3.55.77.79.7.72 1.81 1.85 1.7 1.73 37.93-30.9 4.23-3.45 7.58-6.18 15.53-12.65 29.39-27.2a18.705 18.705 0 0 0 6.05-13.35c0-.17.01-.33.01-.5a18.69 18.69 0 0 0-4.28-11.95Z"/><circle cx="604.004" cy="43.989" r="25.992" fill="#ffb6b6"/><path fill="#2f2e41" d="M638.45 80.03a41.04 41.04 0 0 1 6.83 16.705 17.254 17.254 0 0 1-9.42 2.72c-.114-.437-.227-.874-.357-1.311a37.508 37.508 0 0 0-4.273-9.6 22.595 22.595 0 0 1-1.279 9.486 16.647 16.647 0 0 0-5.584-1.44 10.146 10.146 0 0 0-4.533 1.068c-1.635-5.423-3.14-10.408-4.208-13.986-.033 8.968-13.177 16.786-27.518 15.653-.518-.323 4.678-15.07 4.176-15.41-1.15-.76-2.266-1.586-3.383-2.395 4.694-7.252 9.793-15.022 8.919-16.187.065 1.44-5.083 8.368-10.683 14.908-3.108-2.283 14.552-39.416 5.827-42.426-.146 1.31-2.072 1.31-4.42 1.036a23.95 23.95 0 0 0-2.735-6.135 14.41 14.41 0 0 1-.68 5.681 33.09 33.09 0 0 0-6.895.729 22.095 22.095 0 0 0-1.732-2.364 14.071 14.071 0 0 1-.081 2.736c-2.315.502-4.225 1.085-4.5 1.554-1.813-.664 1.279-3.658.146-5.212-2.882-3.885 1.392-9.55 4.095-13.565 5.552-8.223 17.74-11.072 26.368-6.135.389-1.343 2.38-2.234 4.938-2.833A13.394 13.394 0 0 1 610.77 13c11.007.194 26.287 9.275 26.886 20.266.049 1.1.13 2.299.21 3.577.778 12.303-.177 23.65 8.224 32.65 3.043 3.253 3.075 18.663 1.91 26.595-3.027-3.189-5.18-15.588-9.55-16.058Z"/><circle cx="352.184" cy="141.51" r="3" fill="#6c63ff"/><circle cx="447.184" cy="139.51" r="3" fill="#6c63ff"/><path fill="#2f2e41" d="M161.614 54.797c-2.283 5.686-8.724 16.868-9.596 22.968l.393-.386a27.54 27.54 0 0 0 2.545 3.639 17.689 17.689 0 0 1 6.007-4.13 21.174 21.174 0 0 0-2.11 8.124c2.432 7.62 13.669 4.227 20.253 3.395 6.575 7.52 15.322 9.483 26.777 5.16 3.204.329 6.79.53 9.035-1.364s.908-5.399 2.116-8.05c8.603-18.887.663-25.701-6.083-34.265-1.484-1.885-1.478-4.698-3.284-6.496-2.507-2.492-6.349-3.259-9.89-3.873a5.368 5.368 0 0 0 4.715-2.333 4.842 4.842 0 0 0-.065-5.055c-1.266-2.1-3.899-3.321-6.439-3.626a24.45 24.45 0 0 0-7.451.64 13.334 13.334 0 0 0-4.513 1.443 3.693 3.693 0 0 0-1.922 3.743 4.784 4.784 0 0 0 2.828 3.048 12.522 12.522 0 0 0 3.198.876 25.088 25.088 0 0 0-14.715 2.576c-5.677 3.028-9.508 8.283-11.799 13.966Z"/><circle cx="192.353" cy="66.382" r="20.293" fill="#a0616a"/><path fill="#2f2e41" d="M172.827 55.502c1.176 3.556 4.539 4.702 7.647 5.416.98.229 1.965.441 2.96.63.368-.458.758-.908 1.166-1.333a17.689 17.689 0 0 1 6.007-4.13 20.846 20.846 0 0 0-1.93 6.37q2.818.41 5.667.67a6.408 6.408 0 0 0 7.526-4.618c1.729 2.828 3.774 5.49 6.57 6.614a7.952 7.952 0 0 0 9.045-2.706 19.148 19.148 0 0 0 3.278-7.436c.794-3.15 1.235-6.777-.323-8.775-1.249-1.617-3.402-1.646-5.388-1.502a64.12 64.12 0 0 0-12.948 2.347l-.357.804c.726-4.361-.849-8.557-3.762-10.049-1.965-.998-4.33-.83-6.626-.628a30.197 30.197 0 0 0-8.653 1.673 16.62 16.62 0 0 0-7.842 6.264c-2.039 3.096-3.052 7.318-2.037 10.389Z"/><path fill="#2f2e41" d="M201.756 36.535c-.2-.06.319.017.139.022a1.652 1.652 0 0 0 .265-.037c.015-.003.217-.068.083-.02a1.63 1.63 0 0 0 .774-.506 6.749 6.749 0 0 0 1.106-1.968 7.07 7.07 0 0 1 1.521-2.537 1.74 1.74 0 0 1 2.776.424 4.052 4.052 0 0 1-.247 2.81 8.724 8.724 0 0 1-1.282 2.486 7.978 7.978 0 0 1-3.667 2.69 8.346 8.346 0 0 1-5.245.15 1.268 1.268 0 0 1-.05-2.32l2.866-1.173a1.256 1.256 0 1 1 1.012 2.298l-2.867 1.174-.051-2.32a4.994 4.994 0 0 0 1.097.188 4.204 4.204 0 0 0 1.19-.05 5.212 5.212 0 0 0 1.1-.268 7.174 7.174 0 0 0 .669-.284q.119-.058.235-.12c-.005.003.328-.191.182-.1a7.08 7.08 0 0 0 1.04-.81 2.859 2.859 0 0 0 .311-.346 6.646 6.646 0 0 0 .454-.63 6.522 6.522 0 0 0 .666-1.475 6.611 6.611 0 0 0 .184-.663 2.72 2.72 0 0 1 .066-.364c.107-.286-.02.167.103.29l.528.39a.69.69 0 0 0 .59-.095q.095-.132-.04.044a4.097 4.097 0 0 0-.287.433 11.851 11.851 0 0 0-.514 1.088 11.936 11.936 0 0 1-1.19 2.246 4.042 4.042 0 0 1-4.427 1.693 1.266 1.266 0 0 1-.715-1.625 1.281 1.281 0 0 1 1.625-.715Z"/></svg>