<svg xmlns="http://www.w3.org/2000/svg" width="911.602" height="451.384" data-name="Layer 1"><path fill="#ccc" d="M522.708 441.731a21.283 21.283 0 0 1 0-42.566h316.135a18.505 18.505 0 0 0-16.237-9.653H194.213a30.932 30.932 0 0 0-30.897 30.936 30.952 30.952 0 0 0 30.897 30.936h628.392a18.506 18.506 0 0 0 16.238-9.653Z"/><path fill="#ccc" d="M839.263 410.892H538.692a1.737 1.737 0 0 1 0-3.474h300.57a1.737 1.737 0 0 1 0 3.474ZM839.263 422.186H538.692a1.737 1.737 0 0 1 0-3.475h300.57a1.737 1.737 0 0 1 0 3.475ZM839.263 433.479H538.692a1.737 1.737 0 0 1 0-3.475h300.57a1.737 1.737 0 0 1 0 3.475Z"/><path fill="#6c63ff" d="M441.05 381.791a21.283 21.283 0 0 1 0-42.566h316.135a18.505 18.505 0 0 0-16.237-9.653H112.556a30.933 30.933 0 0 0-30.898 30.936 30.952 30.952 0 0 0 30.898 30.936h628.392a18.505 18.505 0 0 0 16.237-9.653Z"/><path fill="#ccc" d="M757.605 350.952H457.034a1.737 1.737 0 0 1 0-3.475h300.57a1.737 1.737 0 1 1 0 3.475ZM757.605 362.245H457.034a1.737 1.737 0 0 1 0-3.475h300.57a1.737 1.737 0 1 1 0 3.475ZM757.605 373.538H457.034a1.737 1.737 0 0 1 0-3.474h300.57a1.737 1.737 0 1 1 0 3.474ZM359.392 319.85a21.283 21.283 0 0 1 0-42.566h316.135a18.506 18.506 0 0 0-16.237-9.653H30.897A30.932 30.932 0 0 0 0 298.567a30.952 30.952 0 0 0 30.897 30.936H659.29a18.505 18.505 0 0 0 16.237-9.652Z"/><path fill="#ccc" d="M675.947 289.012h-300.57a1.737 1.737 0 0 1 0-3.475h300.57a1.737 1.737 0 1 1 0 3.475ZM675.947 300.305h-300.57a1.737 1.737 0 1 1 0-3.475h300.57a1.737 1.737 0 1 1 0 3.475ZM675.947 311.598h-300.57a1.737 1.737 0 0 1 0-3.475h300.57a1.737 1.737 0 1 1 0 3.475Z"/><path fill="#6c63ff" d="M682.888 187.714a6.5 6.5 0 0 1-6.477-6.075l-.964-14.728a6.5 6.5 0 0 1 6.061-6.911l115.388-7.557a13.88 13.88 0 1 1 1.814 27.7L683.322 187.7q-.218.014-.434.014Z"/><path fill="#2f2e41" d="M705.64 189.613a6.508 6.508 0 0 1-6.492-6.258l-.823-21.998a6.5 6.5 0 0 1 6.253-6.738l94.887-3.546a6.5 6.5 0 0 1 6.738 6.253l.822 21.998a6.5 6.5 0 0 1-6.253 6.737l-94.886 3.547a5.908 5.908 0 0 1-.246.005ZM816.832 392.394h-14.76a6.507 6.507 0 0 1-6.5-6.5V262.879a6.507 6.507 0 0 1 6.5-6.5h14.76a6.507 6.507 0 0 1 6.5 6.5v123.015a6.507 6.507 0 0 1-6.5 6.5Z"/><path fill="#2f2e41" d="m751.32 327.37-12.623-7.651a6.507 6.507 0 0 1-2.189-8.928l63.764-105.198a6.507 6.507 0 0 1 8.928-2.19l12.622 7.651a6.507 6.507 0 0 1 2.19 8.928L760.246 325.18a6.507 6.507 0 0 1-8.928 2.19Z"/><circle cx="794.415" cy="77.001" r="51" fill="#6c63ff"/><path fill="#2f2e41" d="M766.809 94.414a12.095 12.095 0 0 1-4.417-2.593 8.133 8.133 0 0 1-2.378-6.439 5.472 5.472 0 0 1 2.433-4.21c1.824-1.17 4.263-1.174 6.747-.08l-.094-19.91 2-.009.11 23.406-1.54-.97c-1.788-1.122-4.34-1.911-6.143-.754a3.514 3.514 0 0 0-1.521 2.719 6.146 6.146 0 0 0 1.767 4.8c2.209 2.11 5.43 2.77 9.105 3.36l-.317 1.974a32.964 32.964 0 0 1-5.752-1.294ZM748.221 62.159l.262-1.983 10.68 1.41-.263 1.983zM781.93 66.61l.261-1.983 10.68 1.41-.263 1.983zM837 295.884h-86a8.51 8.51 0 0 1-8.5-8.5l18.004-138.064a8.49 8.49 0 0 1 8.496-8.436h30.52a46.032 46.032 0 0 1 45.98 45.98v100.52a8.51 8.51 0 0 1-8.5 8.5Z"/><path fill="#6c63ff" d="M910.99 241.481a6.51 6.51 0 0 1-.967 7.007l-9.65 11.169a6.5 6.5 0 0 1-9.167.669l-87.5-75.598a13.88 13.88 0 1 1 18.147-21.005l87.5 75.597a6.464 6.464 0 0 1 1.638 2.161Z"/><path fill="#2f2e41" d="M891.678 216.534a6.51 6.51 0 0 1-.967 7.006l-16.482 19.077a6.507 6.507 0 0 1-9.168.669l-71.85-62.076a6.5 6.5 0 0 1-.67-9.168l16.481-19.077a6.5 6.5 0 0 1 9.168-.669l71.851 62.076a6.472 6.472 0 0 1 1.637 2.162ZM795.369 46.753c-6.818-5.642-15.932-.306-23.642-1.064-7.376-.724-13.313-7.215-14.93-14.2-1.888-8.15 2.203-16.429 8.366-21.65 6.75-5.717 15.813-7.494 24.45-6.624 9.898.997 19.017 5.43 27.227 10.843a121.85 121.85 0 0 1 21.783 17.759c5.87 6.241 10.886 13.718 12.605 22.234 1.56 7.74.645 16.366-3.821 23.032a24.205 24.205 0 0 1-9.324 7.984c-3.9 2.008-8.073 3.47-11.846 5.728-5.704 3.414-11.178 10.373-9.236 17.47a9.793 9.793 0 0 0 2.305 4.146c1.317 1.408 3.609-.529 2.288-1.94-2.32-2.48-2.295-5.846-1.141-8.88a16.272 16.272 0 0 1 7.081-8.091c3.949-2.358 8.33-3.851 12.382-6.008a27.022 27.022 0 0 0 9.754-8.4c4.768-6.9 6.064-15.784 4.798-23.957-1.37-8.844-6.08-16.815-11.918-23.458-6.355-7.23-14.108-13.305-22.013-18.745-8.482-5.837-17.824-10.73-28.09-12.37-8.899-1.42-18.493-.259-26.156 4.722-7.154 4.648-12.557 12.514-12.945 21.196A22.235 22.235 0 0 0 764.1 46.22a19.101 19.101 0 0 0 11.458 2.426c4.255-.353 8.496-1.74 12.79-1.458a8.94 8.94 0 0 1 5.308 2.028c1.49 1.232 3.19-1.242 1.713-2.464ZM735.4 312.568q.027-.17.064-.338a6.456 6.456 0 0 1 2.83-4.091l12.403-8a6.508 6.508 0 0 1 8.986 1.939l38.261 59.32a6.501 6.501 0 0 1-1.939 8.985l-12.403 8a6.508 6.508 0 0 1-8.986-1.939l-38.261-59.32a6.453 6.453 0 0 1-.956-4.556Z"/></svg>