<svg xmlns="http://www.w3.org/2000/svg" width="860.248" height="688" data-name="Layer 1"><path fill="#cacaca" d="M217.107 386H5a5.006 5.006 0 0 1-5-5V127a5.006 5.006 0 0 1 5-5h212.107a5.006 5.006 0 0 1 5 5v254a5.006 5.006 0 0 1-5 5ZM5 124a3.003 3.003 0 0 0-3 3v254a3.003 3.003 0 0 0 3 3h212.107a3.003 3.003 0 0 0 3-3V127a3.003 3.003 0 0 0-3-3Z"/><path fill="#6c63ff" d="M33.553 176h155v96h-155z"/><path fill="#e4e4e4" d="M33.553 308h39v24h-39zM149.553 308h39v24h-39zM91.553 308h39v24h-39z"/><path fill="#cacaca" d="M509.107 264H297a5.006 5.006 0 0 1-5-5V5a5.006 5.006 0 0 1 5-5h212.107a5.006 5.006 0 0 1 5 5v254a5.006 5.006 0 0 1-5 5ZM297 2a3.003 3.003 0 0 0-3 3v254a3.003 3.003 0 0 0 3 3h212.107a3.003 3.003 0 0 0 3-3V5a3.003 3.003 0 0 0-3-3ZM511.64 425H299.534a5.006 5.006 0 0 1-5-5v-75a5.006 5.006 0 0 1 5-5H511.64a5.006 5.006 0 0 1 5 5v75a5.006 5.006 0 0 1-5 5Zm-212.106-83a3.003 3.003 0 0 0-3 3v75a3.003 3.003 0 0 0 3 3H511.64a3.003 3.003 0 0 0 3-3v-75a3.003 3.003 0 0 0-3-3Z"/><rect width="154" height="24" x="326.053" y="170.5" fill="#e4e4e4" rx="12"/><rect width="154" height="24" x="326.053" y="208.5" fill="#e4e4e4" rx="12"/><circle cx="403.053" cy="87.5" r="56" fill="#6c63ff"/><rect width="81" height="24" x="397.087" y="370.5" fill="#e4e4e4" rx="12"/><circle cx="355.087" cy="382.5" r="22" fill="#6c63ff"/><path fill="#cacaca" d="M859.248 688h-381a1 1 0 0 1 0-2h381a1 1 0 0 1 0 2Z"/><path fill="#ffb6b6" d="M746.38 472.045a8.33 8.33 0 0 1 3.326-12.332l-2.944-29.455 13.62 7.15.708 26.874a8.375 8.375 0 0 1-14.71 7.763ZM627.094 467.903a8.33 8.33 0 0 1 3.327-12.332l-2.944-29.455 13.62 7.15.708 26.874a8.375 8.375 0 0 1-14.711 7.763ZM717.949 675.734h-10.155l-4.832-39.172h14.989l-.002 39.172z"/><path fill="#2f2e41" d="M720.54 685.578h-32.747v-.415a12.746 12.746 0 0 1 12.746-12.745h20Z"/><path fill="#ffb6b6" d="M642.568 675.734h-10.156l-4.831-39.172h14.988l-.001 39.172z"/><path fill="#2f2e41" d="M645.158 685.578H612.41v-.415a12.746 12.746 0 0 1 12.746-12.745h20.001Z"/><circle cx="867.651" cy="350.906" r="26.819" fill="#ffb8b8" transform="rotate(-28.663 575.263 630.365)"/><path fill="#2f2e41" d="m638.578 453.984-4.97 7.873-9.94 205.018 20.709-.828 41.419-173.13 16.567 174.786 18.224.829 14.787-203.261-96.796-11.287z"/><path fill="#3f3d56" d="m747.095 299.079-33.963-18.224-38.105-2.485-33.579 20.709s29.437 86.979-2.87 137.51l-4.97 24.022 102.718 7.455s-6.627-107.688 2.485-120.942 8.284-48.045 8.284-48.045Z"/><path fill="#3f3d56" d="m735.374 303.592 11.72-4.513s20.71 18.224 19.882 62.128-5.303 92.777-5.303 92.777l-15.406 2.485-8.284-71.24-11.597-62.127ZM653.613 303.592l-11.721-4.513s-20.71 18.224-19.881 62.128 5.303 92.777 5.303 92.777l15.406 2.485 8.284-71.24 11.597-62.127Z"/><path fill="#2f2e41" d="M717.163 217.85a23.137 23.137 0 0 0-17.917-6.558c-5.772.466-6.148.606-11.333 3.184a91.529 91.529 0 0 0-9.4 5.141c-.028-1.231-5.143-5.944-5.971-5.032-.828.913 2.134 6.842 1.473 7.88s-6.647-2.676-7.272-3.738c4.623 6.375 10.727 18.979 9.262 26.717a7.716 7.716 0 0 1 13.477 4.641c.326 5.29-4.577 11.09-1.37 15.311 1.833 2.415 5.327 2.616 8.359 2.602l22.435-2.501c4.82-7.682 7.825-13.774 9.136-22.747 1.312-8.973-4.447-18.508-10.88-24.9Z"/></svg>