<svg xmlns="http://www.w3.org/2000/svg" width="731.67" height="550.618"><path fill="#3f3d56" d="M0 334.134c0 .66.53 1.19 1.19 1.19h729.29c.66 0 1.19-.53 1.19-1.19 0-.66-.53-1.19-1.19-1.19H1.19c-.66 0-1.19.53-1.19 1.19Z"/><path fill="#a0616a" d="m466.985 81.606 3.826 48.951 55.457-23.164-31.283-49.787-28 24z"/><circle cx="465.323" cy="55.181" r="41.339" fill="#a0616a"/><path fill="#a0616a" d="m387.985 440.606 7 62.787-49-6.787 16-58 26 2zM578.985 449.606l7 62.787-49-6.787 16-58 26 2z"/><path fill="#2f2e41" d="M462.485 260.106c-.67 0-54.146 2.685-89.478 4.463-16.722.841-29.452 15.315-28.154 32.009l12.632 162.528 36 1 .878-131 71.122 4-3-73Z"/><path fill="#2f2e41" d="M619.485 259.106s9 69 2 76-226.5-5.5-226.5-5.5 48.153-69.537 56.826-71.519c8.674-1.981 146.674-8.981 146.674-8.981l21 10Z"/><path fill="#a0616a" d="M335.127 172.233c-8.36-11.69-9.103-25.48-1.662-30.798 7.44-5.319 20.247-.152 28.607 11.544 3.404 4.626 5.65 10 6.551 15.672l34.792 49.982-19.8 13.708-35.774-48.834a35.97 35.97 0 0 1-12.714-11.274Z"/><path fill="#6c63ff" d="m464.985 112.606 51-21 96 148s-67 15-90 18-49-9-49-9l-8-136Z"/><path fill="#3f3d56" d="m526.985 137.606-18.5-57.709 24 18.209s68 45 68 64 21 77 21 77 23.5 19.5 15.5 37.5 10.5 15.5 12.5 28.5-28.5 30.5-28.5 30.5-7.5-73.5-31.5-73.5-62.5-124.5-62.5-124.5ZM468.568 111.13l-25.083 9.976s4 70 8 76 18 38 18 38v10.43s-28 8.57-27 13.57 66 19 66 19-13-40-21-53-18.917-113.976-18.917-113.976Z"/><path fill="#3f3d56" d="M452.485 121.106s-29-4-34 30-1.823 38.5-1.823 38.5l-8.177 19.5-27-30-26 17s47 76 66 74 47-57 47-57l-16-92Z"/><path fill="#2f2e41" d="m597.323 270.145-14.838 209.961-38.5-1.5s-8.5-198.5-8.5-201.5 4-20 29-21 32.838 14.039 32.838 14.039ZM541.485 484.106s20-6 23-2 20 6 20 6l5 49s-14 10-16 12-55 4-56-8 14-27 14-27l10-30ZM394.485 470.106s6-5 8 9 9 37-1 40-110 4-110-5v-9l9-7 18.004-2.869s34.996-32.131 38.996-32.131 17 13 17 13l20-6ZM505.985 77.606s-20-24-28-22-3 5-3 5l-20-22s-16-6-31 13c0 0-9-16 0-25s12-8 14-13 16-9 16-9-.804-7.197 3.598-3.598 15.394 3.598 15.394 3.598.063-4 4.535 0c4.473 4 9.473 2 9.473 2s0 6.921 3.5 6.96c3.5.04 9.5-4.96 10.5-.96s8 6 9 18-4 47-4 47Z"/><path fill="#fff" d="m342.995 178.849-114.237 78.827c-3.942 2.72-9.362 1.726-12.082-2.216l-32.162-46.609c-2.72-3.942-1.726-9.362 2.217-12.082l114.236-78.827c3.942-2.72 9.362-1.726 12.082 2.216l32.162 46.609c2.72 3.942 1.726 9.362-2.216 12.082Z"/><path fill="#e6e6e6" d="M312.84 120.303 345 166.91a8.427 8.427 0 0 1-2.15 11.728l-56.064 38.686c-14.786-4.04-28.278-13.115-37.663-26.716-6.147-8.91-9.853-18.772-11.266-28.81l63.255-43.647a8.427 8.427 0 0 1 11.727 2.15Z"/><path fill="#3f3d56" d="M223.84 260.21c-3.079 0-6.11-1.462-7.987-4.182L183.69 209.42a9.62 9.62 0 0 1-1.55-7.248 9.615 9.615 0 0 1 4.022-6.226L300.4 117.118c4.397-3.032 10.44-1.923 13.473 2.471l32.162 46.61a9.62 9.62 0 0 1 1.55 7.247 9.62 9.62 0 0 1-4.021 6.226l-114.237 78.827a9.638 9.638 0 0 1-5.486 1.71Zm82.048-142.803c-1.504 0-3.023.44-4.353 1.358L187.3 197.592a7.63 7.63 0 0 0-3.191 4.94 7.628 7.628 0 0 0 1.23 5.75l32.161 46.61c2.407 3.486 7.202 4.368 10.69 1.96l114.238-78.826a7.632 7.632 0 0 0 3.19-4.94 7.628 7.628 0 0 0-1.229-5.75l-32.162-46.61a7.685 7.685 0 0 0-6.338-3.319Z"/><path fill="#6c63ff" d="M224.667 236.937a6.386 6.386 0 0 0-1.628 8.874 6.386 6.386 0 0 0 8.874 1.627l11.761-8.115a6.386 6.386 0 0 0 1.628-8.874 6.386 6.386 0 0 0-8.874-1.628l-11.761 8.116ZM232.639 171.911c-4.568 3.152-5.72 9.433-2.568 14.001 3.152 4.568 9.432 5.72 14 2.568l18.296-12.625c4.568-3.152 5.72-9.432 2.568-14-3.152-4.568-9.433-5.72-14-2.568l-18.296 12.624Z"/><path fill="#fff" d="M340.26 185.809H201.465c-4.79 0-8.686-3.897-8.686-8.686v-56.628c0-4.79 3.896-8.686 8.686-8.686h138.793c4.79 0 8.686 3.896 8.686 8.686v56.628c0 4.79-3.896 8.686-8.686 8.686Z"/><path fill="#e6e6e6" d="M348.69 120.495v56.628c0 4.66-3.771 8.43-8.43 8.43h-68.117c-9.875-11.722-15.825-26.854-15.825-43.379 0-10.824 2.551-21.046 7.089-30.11h76.852c4.66 0 8.431 3.771 8.431 8.43Z"/><path fill="#3f3d56" d="M340.26 186.809H201.465c-5.34 0-9.686-4.345-9.686-9.686v-56.629c0-5.34 4.345-9.685 9.686-9.685H340.26c5.34 0 9.687 4.344 9.687 9.685v56.63c0 5.34-4.346 9.685-9.687 9.685Zm-138.794-74c-4.238 0-7.686 3.447-7.686 7.685v56.63c0 4.237 3.448 7.685 7.686 7.685H340.26c4.238 0 7.687-3.448 7.687-7.686v-56.629c0-4.238-3.449-7.685-7.687-7.685H201.466Z"/><path fill="#6c63ff" d="M209.876 166.416c-3.517 0-6.379 2.861-6.379 6.379s2.862 6.38 6.38 6.38h14.289c3.518 0 6.38-2.862 6.38-6.38s-2.862-6.38-6.38-6.38h-14.29ZM253.37 117.423c-5.55 0-10.066 4.515-10.066 10.065s4.515 10.065 10.065 10.065h22.228c5.55 0 10.066-4.515 10.066-10.065s-4.516-10.065-10.066-10.065H253.37Z"/><path fill="#fff" d="M456.26 381.809H317.465c-4.79 0-8.686-3.897-8.686-8.686v-56.628c0-4.79 3.896-8.686 8.686-8.686h138.793c4.79 0 8.686 3.896 8.686 8.686v56.628c0 4.79-3.896 8.686-8.686 8.686Z"/><path fill="#e6e6e6" d="M464.69 316.495v56.628c0 4.66-3.771 8.43-8.43 8.43h-68.117c-9.875-11.722-15.825-26.854-15.825-43.379 0-10.824 2.551-21.046 7.089-30.11h76.852c4.66 0 8.431 3.771 8.431 8.43Z"/><path fill="#3f3d56" d="M456.26 382.809H317.465c-5.34 0-9.686-4.345-9.686-9.686v-56.629c0-5.34 4.345-9.685 9.686-9.685H456.26c5.34 0 9.687 4.344 9.687 9.685v56.63c0 5.34-4.346 9.685-9.687 9.685Zm-138.794-74c-4.238 0-7.686 3.447-7.686 7.685v56.63c0 4.237 3.448 7.685 7.686 7.685H456.26c4.238 0 7.687-3.448 7.687-7.686v-56.629c0-4.238-3.449-7.685-7.687-7.685H317.466Z"/><path fill="#6c63ff" d="M325.876 362.416c-3.517 0-6.379 2.861-6.379 6.379s2.862 6.38 6.38 6.38h14.289c3.518 0 6.38-2.862 6.38-6.38s-2.862-6.38-6.38-6.38h-14.29ZM369.37 313.423c-5.55 0-10.066 4.515-10.066 10.065s4.515 10.065 10.065 10.065h22.228c5.55 0 10.066-4.515 10.066-10.065s-4.516-10.065-10.066-10.065H369.37Z"/><path fill="#a0616a" d="M465.674 331.017c-12.747 6.637-26.505 5.44-30.728-2.673-4.222-8.113 2.688-20.068 15.44-26.706a35.967 35.967 0 0 1 16.437-4.29l54.366-27.44 10.797 21.526-53.368 28.575a35.97 35.97 0 0 1-12.944 11.008Z"/><path fill="#3f3d56" d="M527.485 97.106s56-3 68 27 22 128 22 128l-122 66.374-21-32.374 82-64-29-125Z"/></svg>