<svg xmlns="http://www.w3.org/2000/svg" data-name="Layer 1" width="652.055" height="613.451"><path d="m65.331 558.523-.998-22.434a72.456 72.456 0 0 0-33.795-8.555c16.231 13.27 14.203 38.85 25.207 56.696a43.582 43.582 0 0 0 31.96 20.14l13.583 8.317a73.03 73.03 0 0 0-15.393-59.179 70.543 70.543 0 0 0-12.965-12.046c-3.253 8.578-7.599 17.06-7.599 17.06Z" fill="#f2f2f2"/><rect x="223.555" y="146.5" width="224" height="130" rx="14.815" fill="#fff"/><path d="M432.74 277.5H238.37a15.833 15.833 0 0 1-15.814-15.815v-100.37A15.833 15.833 0 0 1 238.37 145.5h194.37a15.833 15.833 0 0 1 15.814 15.815v100.37a15.833 15.833 0 0 1-15.814 15.815Zm-194.37-130a13.83 13.83 0 0 0-13.814 13.815v100.37A13.83 13.83 0 0 0 238.37 275.5h194.37a13.83 13.83 0 0 0 13.814-13.815v-100.37a13.83 13.83 0 0 0-13.814-13.815Z" fill="#3f3d56"/><path d="M636.74 131H442.37a15.332 15.332 0 0 1-15.315-15.315V15.315A15.332 15.332 0 0 1 442.371 0h194.37a15.332 15.332 0 0 1 15.314 15.315v100.37A15.332 15.332 0 0 1 636.741 131ZM636.74 423H442.37a15.332 15.332 0 0 1-15.315-15.315v-100.37A15.332 15.332 0 0 1 442.371 292h194.37a15.332 15.332 0 0 1 15.314 15.315v100.37A15.332 15.332 0 0 1 636.741 423Z" fill="#f2f2f2"/><path d="M391.458 197.169a24.89 24.89 0 0 0-20.7-18.102c-.107-.016-.209.005-.316-.002a2.956 2.956 0 0 0-.422-.102c-22.609-3.075-48.707 8.303-58.13 30.858-4.665-6.502-12.103-10.703-20.059-10.285-10.149.532-19.105 8.306-21.849 18.531a3.086 3.086 0 0 0 1.276 3.3 12.31 12.31 0 0 0 5.166 2.76q6.159 1.373 12.361 2.515 12.104 2.229 24.334 3.604a343.988 343.988 0 0 0 49.84 1.982c5.542-.181 10.886-.375 15.963-2.948a24.162 24.162 0 0 0 9.156-8.408 29.608 29.608 0 0 0 3.38-23.703Z" fill="#3f3d56"/><path d="M388.966 198.364a21.934 21.934 0 0 0-7.013-10.7 24.1 24.1 0 0 0-12.144-5.227h-.27l-.25-.045a1.74 1.74 0 0 0-.245-.058 59.195 59.195 0 0 0-22.265 1.593c-13.942 3.667-27.146 12.35-33.311 26.356l-.88 2.01-1.317-1.753a22.185 22.185 0 0 0-17.545-9.081c-.334 0-.668.006-1.008.026A22.526 22.526 0 0 0 272.5 217.79a1.58 1.58 0 0 0 .758 1.676l.103.078a10.924 10.924 0 0 0 4.476 2.28 335.69 335.69 0 0 0 12.06 2.33 363.173 363.173 0 0 0 23.737 3.34 351.15 351.15 0 0 0 42.411 1.972q3.111-.039 6.21-.135c5.318-.16 10.346-.321 15.111-2.614a22.01 22.01 0 0 0 8.465-7.398 25.092 25.092 0 0 0 3.134-20.955Z" fill="#fff"/><path d="M356.046 229.466a351.15 351.15 0 0 1-42.411-1.972 363.194 363.194 0 0 1-23.736-3.34c-4.014-.7-8.073-1.483-12.061-2.33a10.924 10.924 0 0 1-4.476-2.28l-.103-.077a1.58 1.58 0 0 1-.758-1.677 22.526 22.526 0 0 1 20.217-16.305c.34-.02.674-.026 1.008-.026a22.185 22.185 0 0 1 17.545 9.08l1.317 1.754.88-2.01c6.165-14.007 19.369-22.69 33.31-26.356 2.814 2.543 4.625 6.441 3.597 10.057-1.24 4.386-6.146 7.122-6.968 11.604-.751 4.091 2.177 7.893 5.19 10.757 3.011 2.858 6.498 5.729 7.372 9.788a8.97 8.97 0 0 1 .077 3.333Z" fill="#6c63ff"/><circle cx="368.152" cy="205.441" r="11.56" fill="#3f3d56"/><path d="m372.997 204.207-4.335-4.335a.722.722 0 0 0-1.021 0l-4.335 4.335a.722.722 0 1 0 1.021 1.022l3.102-3.102v8.371a.723.723 0 1 0 1.445 0v-8.37l3.102 3.101a.722.722 0 0 0 1.021-1.022ZM577.55 95.06h-68.97a5.304 5.304 0 0 1-5.299-5.297V26.798a5.304 5.304 0 0 1 5.298-5.298h68.97a5.304 5.304 0 0 1 5.298 5.298v62.965a5.304 5.304 0 0 1-5.298 5.298Z" fill="#fff"/><path d="M577.55 96.061h-68.97a6.305 6.305 0 0 1-6.298-6.298V26.798a6.305 6.305 0 0 1 6.297-6.298h68.97a6.305 6.305 0 0 1 6.298 6.298v62.965a6.305 6.305 0 0 1-6.297 6.298ZM508.58 22.5a4.303 4.303 0 0 0-4.298 4.298v62.965a4.303 4.303 0 0 0 4.297 4.298h68.97a4.303 4.303 0 0 0 4.298-4.298V26.798a4.303 4.303 0 0 0-4.297-4.298Z" fill="#ccc"/><circle cx="528.9" cy="42.748" r="8.597" fill="#ccc"/><path d="M563.265 64.412h-40.402a2.56 2.56 0 1 1 0-5.12h40.402a2.56 2.56 0 1 1 0 5.12ZM542.359 74.528h-19.496a2.56 2.56 0 1 1 0-5.12h19.496a2.56 2.56 0 1 1 0 5.12ZM507.141 113.54a18.152 18.152 0 1 1 18.153-18.152 18.152 18.152 0 0 1-18.153 18.153Z" fill="#ccc"/><path d="M514.304 93.598h-5.372v-5.372a1.79 1.79 0 0 0-3.581 0v5.372h-5.372a1.79 1.79 0 0 0 0 3.58h5.372v5.373a1.79 1.79 0 1 0 3.581 0v-5.372h5.372a1.79 1.79 0 1 0 0-3.581ZM505.936 380.916c-.036 0-.073 0-.11-.002a2.651 2.651 0 0 1-2.131-1.212 29.95 29.95 0 0 0-6.305-6.83c-1.48-1.183-3.026-2.283-4.522-3.347-3.857-2.742-7.49-5.326-9.507-8.895-4.397-7.784.781-18.626 8.178-23.488 8.297-5.453 19.21-6.308 29.768-6.42q1.646-.017 3.294-.017a314.029 314.029 0 0 1 56.713 5.185c6.22 1.148 12.732 2.554 17.965 5.966 5.202 3.392 8.364 8.734 8.055 13.609-.45 7.116-7.994 12.434-14.864 13.825-6.548 1.324-13.35.429-20.552-.519-1.59-.209-3.233-.425-4.859-.613-17.666-2.042-50.854 4.252-52.258 4.52l-1.393.267-5.405 6.956a2.594 2.594 0 0 1-2.067 1.015Z" fill="#fff"/><path d="m505.936 381.916-.135-.002a3.65 3.65 0 0 1-2.942-1.664 28.954 28.954 0 0 0-6.093-6.597c-1.463-1.17-2.996-2.258-4.477-3.312-3.947-2.806-7.673-5.456-9.798-9.22-4.668-8.263.733-19.71 8.5-24.815 8.51-5.594 19.595-6.47 30.305-6.584q1.652-.018 3.305-.018a314.988 314.988 0 0 1 56.894 5.203c6.32 1.166 12.942 2.597 18.33 6.111 5.499 3.586 8.838 9.281 8.507 14.51-.481 7.613-8.43 13.277-15.664 14.742-6.713 1.357-13.596.452-20.88-.508a334.215 334.215 0 0 0-4.844-.611c-17.561-2.026-50.558 4.242-51.955 4.51l-1.023.196-5.174 6.657a3.593 3.593 0 0 1-2.856 1.402Zm18.665-50.211q-1.643 0-3.283.017c-10.406.11-21.15.945-29.23 6.256-7.027 4.62-11.982 14.855-7.856 22.16 1.907 3.375 5.456 5.9 9.213 8.571 1.507 1.072 3.063 2.178 4.569 3.381a30.96 30.96 0 0 1 6.517 7.063 1.665 1.665 0 0 0 1.336.762l.069.001a1.59 1.59 0 0 0 1.277-.628l5.637-7.253 1.763-.338c1.407-.27 34.698-6.6 52.56-4.532 1.632.188 3.28.405 4.876.615 7.114.937 13.835 1.822 20.222.53 6.506-1.317 13.646-6.289 14.065-12.91.286-4.52-2.698-9.508-7.603-12.706-5.079-3.312-11.48-4.692-17.6-5.82a313.018 313.018 0 0 0-56.532-5.17Z" fill="#ccc"/><path d="M584.606 346.198h-74.67a1.625 1.625 0 0 1 0-3.25h74.67a1.625 1.625 0 0 1 0 3.25ZM584.606 356.17h-74.67a1.625 1.625 0 1 1-.003-3.249h74.673a1.625 1.625 0 0 1 0 3.25ZM518.638 366.142h-8.702a1.625 1.625 0 0 1 0-3.249h8.702a1.625 1.625 0 0 1 0 3.25Z" fill="#ccc"/><circle cx="505.858" cy="388.346" r="10.818" fill="#fff"/><path d="M505.858 399.295a10.95 10.95 0 1 1 10.95-10.95 10.962 10.962 0 0 1-10.95 10.95Z" fill="#ccc"/><path d="M505.048 392.669c-.023 0-.046 0-.07-.002a1.415 1.415 0 0 1-1.048-.545l-1.808-2.324a1.415 1.415 0 0 1 .248-1.986l.065-.05a1.415 1.415 0 0 1 1.987.247 1.032 1.032 0 0 0 1.563.076l3.671-3.875a1.417 1.417 0 0 1 2.001-.054l.06.057a1.415 1.415 0 0 1 .054 2.001l-5.696 6.013a1.414 1.414 0 0 1-1.027.442Z" fill="#fff"/><path d="M164.835 334.42a7.225 7.225 0 0 0-1.29.121l-7.082-44.83 7.095-43.16a10.87 10.87 0 0 0-21.102-5.005 85.758 85.758 0 0 0-3.9 26.3l.247 29.433 18.88 45.203a7.206 7.206 0 1 0 7.152-8.062Z" fill="#ffb8b8"/><path d="M134.77 248.294a17.095 17.095 0 1 1 34.191 0L157.85 287.49l-19.297-.96Z" fill="#2f2e41"/><path fill="#ffb8b8" d="m175.317 592.125 11.033-.001 5.249-42.557-16.284.001.002 42.557z"/><path d="m205.6 604.56-16.58-11.45v-7.47l-1.88.11-11.82.71-3.74.22-2.13 25.54-.07.85h7.83l.16-.85 1.24-6.54 3.17 6.54.41.85h20.76a4.68 4.68 0 0 0 4.67-4.66 4.67 4.67 0 0 0-2.02-3.85Z" fill="#2f2e41"/><path fill="#ffb8b8" d="m109.146 566.692 8.767 6.699 30.011-30.627-12.939-9.887-25.839 33.815z"/><path d="m125.658 594.961-6.222-19.164 4.536-5.936-1.56-1.054-9.824-6.613-3.105-2.096-17.2 19-.571.633 6.221 4.754.643-.578 4.957-4.443-1.453 7.12-.19.925 16.495 12.605a4.68 4.68 0 0 0 6.54-.867 4.67 4.67 0 0 0 .733-4.286ZM153.905 382.85l11.03 33.85s3.92 36.12 8.11 44.12a18.395 18.395 0 0 1 1.6 5.14c.12.6.21 1.23.29 1.86.16 1.25.27 2.54.34 3.84a102.51 102.51 0 0 1-.71 16.54c-1.98 1.72-3.43 17.23-4.44 36.36q-.165 2.985-.31 6.07c-.2 4.15-.38 8.41-.54 12.69-1.15 29.74-.51 23.38-.51 23.38 27.96 5.13 26.81-4.12 26.81-4.12s9.6-42.89 12.08-62.43c.3-2.28.48-3.74.52-4.16a23.736 23.736 0 0 1 1.13-6.08 19.236 19.236 0 0 0 1.45-2.43.01.01 0 0 0 .01-.01 36.08 36.08 0 0 0 3.28-13.66 46.742 46.742 0 0 0 .02-6.15 183.918 183.918 0 0 1 3.03-35.75c1.75-8.05.61-23.61-.94-36.94-.63-5.5-1.34-10.62-1.93-14.67-.03-.17-.05-.34-.07-.51-.76-5.09-1.32-8.37-1.32-8.37s2.55-8.74.66-11.97c-.87-1.45-.75-4.87-.38-8.25.46-4.12 1.32-7.96 1.32-7.96l-51.93-9.15c-1.09 1.81-2.06 3.56-3.01 5.25-17.17 31.73-5.59 43.51-5.59 43.51Z" fill="#2f2e41"/><path d="M139.064 238.047a10.102 10.102 0 0 1 7.277-6.411 22.677 22.677 0 0 1 7.546-.825c7.446.293 12.694-13.717 20.068-12.637 0 0 6.94-2.476 12.37 2.062 4.932 4.123 8.333 15.336 9.599 14.698a4.123 4.123 0 0 1 1.82.001 20.424 20.424 0 0 1 17.54 21.52l-.537 9.095s3.793 5.71-1.712 15.792l3.196 35.563s5.324 49.544-2.676 56.595-37.464-23.691-37.464-23.691-22.637-3.608-21.297-7.793 8.37-15.792 8.37-15.792a3.608 3.608 0 0 0-1.134-3.608c-1.71-1.093.207-3.567.35-3.794-.164.165-1.463 1.526-2.453-1.34s2.062-6.473 2.062-6.473l-8.618-18.555-6.782-14.658-.825-1.69-5.71-11.793-.133-.274a29.206 29.206 0 0 1-1.881-20.176 22.512 22.512 0 0 0 1.024-5.816Z" fill="#6c63ff"/><path d="M121.136 541.3c20.51 19.68 24.64 11.31 24.64 11.31s11.09-12.77 24.35-28.05c4.76-5.48 9.79-11.28 14.69-16.93 6.77-7.81 13.28-15.33 18.46-21.31 5.73-6.63 9.81-11.37 10.77-12.51a46.742 46.742 0 0 0 .02-6.15 183.918 183.918 0 0 1 3.03-35.75c1.75-8.05.61-23.61-.94-36.94-2.32 4.83-5 10.56-7.22 15.85-2.48 5.89-4.41 11.22-4.71 14.12-.95 8.93-13.8 23.69-13.8 23.69l-.15.03c-2.11.56-8.06 7.48-15.63 17.3-20.68 26.82-53.51 75.34-53.51 75.34Z" fill="#2f2e41"/><path d="M289.223 228.615a7.227 7.227 0 0 0 .267 1.268l-43.736 12.133-43.685-2.142a10.87 10.87 0 0 0-2.575 21.533 85.758 85.758 0 0 0 26.573.886l29.215-3.592 42.764-23.896a7.206 7.206 0 1 0-8.823-6.19Z" fill="#ffb8b8"/><path d="M207.073 268.276a17.095 17.095 0 1 1-3.887-33.969l40.206 6.584 1.24 19.28Z" fill="#2f2e41"/><path d="M200.066 203.184a22.755 22.755 0 1 1 1.156-19.386c.104.26.198.521.292.792a22.724 22.724 0 0 1-1.448 18.594Z" fill="#ffb6b6"/><path d="M203.337 184.59c-.98-2.74-.552-1.312-1.542-4.042a6.811 6.811 0 0 1-.281 4.042H174.42v-15.75c7.938-3.146 15.698-5.823 20.385 0a15.75 15.75 0 0 1 15.75 15.75Z" fill="#2f2e41"/><path d="M193.733 228.371c-.021-.291-.053-.593-.094-.885a30.676 30.676 0 0 0-1.76-6.25c-.782-2.198-1.574-4.406-2.365-6.604a18.908 18.908 0 0 1-.886 12c-4.573-3.563-1.687-11.708-7.666-11.708-14.375 0-29.167-11.657-29.167-26.042 0-14.375 6.167-25.125 20.542-25.125 14.385 0 26.052 6.583 26.333 20.958-17.708 4.167-1.594 42.198-4.937 43.656Z" fill="#2f2e41"/><circle cx="153.591" cy="170.012" r="16.667" fill="#2f2e41"/><path d="M0 612.261a1.186 1.186 0 0 0 1.19 1.19h280.29a1.19 1.19 0 0 0 0-2.38H1.19a1.187 1.187 0 0 0-1.19 1.19Z" fill="#ccc"/></svg>